%
M48
M72
T01C0.02362
T02C0.03937
T03C0.08661
%
T01
X55450Y32094
X50843Y37330
X51864Y43969
X75600Y36484
X89600Y29484
X103724Y28157
X131689Y27007
X98600Y35484
X110336Y44977
X136600Y41484
X150600Y41484
X157600Y46484
X163564Y51377
X171110Y53064
X56244Y59240
X51600Y53484
T02
X143836Y27484
X153679Y27484
X163521Y27484
X173364Y27484
X30600Y25484
X18600Y25484
T03
X118600Y27484
X198600Y27484
M30
