G75*
%MOIN*%
%OFA0B0*%
%FSLAX25Y25*%
%IPPOS*%
%LPD*%
%AMOC8*
5,1,8,0,0,1.08239X$1,22.5*
%
%ADD10C,0.05937*%
%ADD11C,0.03962*%
%ADD12C,0.01200*%
%ADD13C,0.01000*%
D10*
X0018600Y0025484D03*
X0030600Y0025484D03*
X0143836Y0027484D03*
X0153679Y0027484D03*
X0163521Y0027484D03*
X0173364Y0027484D03*
D11*
X0150600Y0041484D03*
X0136600Y0041484D03*
X0157600Y0046484D03*
X0163564Y0051377D03*
X0171110Y0053064D03*
X0110336Y0044977D03*
X0098600Y0035484D03*
X0089600Y0029484D03*
X0103724Y0028157D03*
X0131689Y0027007D03*
X0075600Y0036484D03*
X0055450Y0032094D03*
X0050843Y0037330D03*
X0051864Y0043969D03*
X0051600Y0053484D03*
X0056244Y0059240D03*
D12*
X0022473Y0022896D02*
X0021661Y0022084D01*
X0027539Y0022084D01*
X0026727Y0022896D01*
X0026031Y0024576D01*
X0026031Y0026393D01*
X0026727Y0028072D01*
X0028012Y0029357D01*
X0029691Y0030053D01*
X0031509Y0030053D01*
X0033188Y0029357D01*
X0034473Y0028072D01*
X0035168Y0026393D01*
X0035168Y0024576D01*
X0034473Y0022896D01*
X0033661Y0022084D01*
X0111370Y0022084D01*
X0111029Y0022425D01*
X0109669Y0025708D01*
X0109669Y0029261D01*
X0111029Y0032543D01*
X0113541Y0035055D01*
X0116701Y0036364D01*
X0105200Y0036364D01*
X0100750Y0040814D01*
X0065350Y0040814D01*
X0062130Y0037594D01*
X0062130Y0037453D01*
X0062138Y0037446D01*
X0062130Y0036586D01*
X0062130Y0035724D01*
X0062122Y0035717D01*
X0062122Y0035706D01*
X0061509Y0035104D01*
X0060900Y0034494D01*
X0060889Y0034494D01*
X0059031Y0032669D01*
X0059031Y0031382D01*
X0058486Y0030066D01*
X0057479Y0029058D01*
X0056162Y0028513D01*
X0054738Y0028513D01*
X0053421Y0029058D01*
X0052414Y0030066D01*
X0051869Y0031382D01*
X0051869Y0032807D01*
X0052405Y0034101D01*
X0051555Y0033749D01*
X0050131Y0033749D01*
X0048814Y0034294D01*
X0047807Y0035302D01*
X0047262Y0036618D01*
X0047262Y0038043D01*
X0047807Y0039359D01*
X0048814Y0040366D01*
X0050131Y0040911D01*
X0051555Y0040911D01*
X0052872Y0040366D01*
X0053879Y0039359D01*
X0054424Y0038043D01*
X0054424Y0036618D01*
X0053888Y0035323D01*
X0054738Y0035675D01*
X0056098Y0035675D01*
X0057930Y0037475D01*
X0057930Y0039334D01*
X0059160Y0040564D01*
X0063610Y0045014D01*
X0102490Y0045014D01*
X0103720Y0043784D01*
X0106940Y0040564D01*
X0128240Y0040564D01*
X0129470Y0039334D01*
X0130610Y0038194D01*
X0135185Y0038194D01*
X0134571Y0038448D01*
X0133564Y0039456D01*
X0133019Y0040772D01*
X0133019Y0042197D01*
X0133564Y0043513D01*
X0134571Y0044520D01*
X0135888Y0045065D01*
X0137312Y0045065D01*
X0138629Y0044520D01*
X0139636Y0043513D01*
X0140181Y0042197D01*
X0140181Y0040772D01*
X0139636Y0039456D01*
X0138629Y0038448D01*
X0138015Y0038194D01*
X0156180Y0038194D01*
X0168548Y0050562D01*
X0168074Y0051036D01*
X0167529Y0052352D01*
X0167529Y0053777D01*
X0168074Y0055093D01*
X0169081Y0056100D01*
X0170398Y0056645D01*
X0171822Y0056645D01*
X0173139Y0056100D01*
X0174146Y0055093D01*
X0174691Y0053777D01*
X0174691Y0052352D01*
X0174146Y0051036D01*
X0173210Y0050100D01*
X0173210Y0049284D01*
X0159150Y0035224D01*
X0157920Y0033994D01*
X0128870Y0033994D01*
X0126500Y0036364D01*
X0120499Y0036364D01*
X0123659Y0035055D01*
X0126171Y0032543D01*
X0127531Y0029261D01*
X0127531Y0025708D01*
X0126171Y0022425D01*
X0125830Y0022084D01*
X0191370Y0022084D01*
X0191029Y0022425D01*
X0189669Y0025708D01*
X0189669Y0029261D01*
X0191029Y0032543D01*
X0193541Y0035055D01*
X0196824Y0036415D01*
X0200376Y0036415D01*
X0203659Y0035055D01*
X0206000Y0032714D01*
X0206000Y0062884D01*
X0015200Y0062884D01*
X0015200Y0028545D01*
X0016012Y0029357D01*
X0017691Y0030053D01*
X0019509Y0030053D01*
X0021188Y0029357D01*
X0022473Y0028072D01*
X0023168Y0026393D01*
X0023168Y0024576D01*
X0022473Y0022896D01*
X0022713Y0023477D02*
X0026487Y0023477D01*
X0026031Y0024675D02*
X0023168Y0024675D01*
X0023168Y0025874D02*
X0026031Y0025874D01*
X0026313Y0027072D02*
X0022887Y0027072D01*
X0022274Y0028271D02*
X0026926Y0028271D01*
X0028283Y0029469D02*
X0020917Y0029469D01*
X0016283Y0029469D02*
X0015200Y0029469D01*
X0015200Y0030668D02*
X0052165Y0030668D01*
X0051869Y0031866D02*
X0015200Y0031866D01*
X0015200Y0033065D02*
X0051976Y0033065D01*
X0048889Y0034263D02*
X0015200Y0034263D01*
X0015200Y0035462D02*
X0047741Y0035462D01*
X0047262Y0036660D02*
X0015200Y0036660D01*
X0015200Y0037859D02*
X0047262Y0037859D01*
X0047682Y0039057D02*
X0015200Y0039057D01*
X0015200Y0040256D02*
X0048704Y0040256D01*
X0052982Y0040256D02*
X0058852Y0040256D01*
X0057930Y0039057D02*
X0054004Y0039057D01*
X0054424Y0037859D02*
X0057930Y0037859D01*
X0057101Y0036660D02*
X0054424Y0036660D01*
X0054222Y0035462D02*
X0053945Y0035462D01*
X0059434Y0033065D02*
X0074497Y0033065D01*
X0074888Y0032903D02*
X0076312Y0032903D01*
X0077629Y0033448D01*
X0078636Y0034456D01*
X0079181Y0035772D01*
X0079181Y0037197D01*
X0078636Y0038513D01*
X0077629Y0039520D01*
X0076312Y0040065D01*
X0074888Y0040065D01*
X0073571Y0039520D01*
X0072564Y0038513D01*
X0072019Y0037197D01*
X0072019Y0035772D01*
X0072564Y0034456D01*
X0073571Y0033448D01*
X0074888Y0032903D01*
X0076703Y0033065D02*
X0088887Y0033065D01*
X0088888Y0033065D02*
X0087571Y0032520D01*
X0086564Y0031513D01*
X0086019Y0030197D01*
X0086019Y0028772D01*
X0086564Y0027456D01*
X0087571Y0026448D01*
X0088888Y0025903D01*
X0090312Y0025903D01*
X0091629Y0026448D01*
X0092636Y0027456D01*
X0093181Y0028772D01*
X0093181Y0030197D01*
X0092636Y0031513D01*
X0091629Y0032520D01*
X0090312Y0033065D01*
X0088888Y0033065D01*
X0090313Y0033065D02*
X0095955Y0033065D01*
X0095564Y0033456D02*
X0096571Y0032448D01*
X0097888Y0031903D01*
X0099312Y0031903D01*
X0100629Y0032448D01*
X0101636Y0033456D01*
X0102181Y0034772D01*
X0102181Y0036197D01*
X0101636Y0037513D01*
X0100629Y0038520D01*
X0099312Y0039065D01*
X0097888Y0039065D01*
X0096571Y0038520D01*
X0095564Y0037513D01*
X0095019Y0036197D01*
X0095019Y0034772D01*
X0095564Y0033456D01*
X0095230Y0034263D02*
X0078444Y0034263D01*
X0079053Y0035462D02*
X0095019Y0035462D01*
X0095211Y0036660D02*
X0079181Y0036660D01*
X0078907Y0037859D02*
X0095910Y0037859D01*
X0097869Y0039057D02*
X0078091Y0039057D01*
X0073109Y0039057D02*
X0063593Y0039057D01*
X0064792Y0040256D02*
X0101308Y0040256D01*
X0102507Y0039057D02*
X0099331Y0039057D01*
X0101290Y0037859D02*
X0103705Y0037859D01*
X0104904Y0036660D02*
X0101989Y0036660D01*
X0102181Y0035462D02*
X0114523Y0035462D01*
X0112749Y0034263D02*
X0101970Y0034263D01*
X0101245Y0033065D02*
X0111551Y0033065D01*
X0110749Y0031866D02*
X0092282Y0031866D01*
X0092986Y0030668D02*
X0101170Y0030668D01*
X0100688Y0030186D02*
X0100143Y0028870D01*
X0100143Y0027445D01*
X0100688Y0026129D01*
X0101695Y0025121D01*
X0103012Y0024576D01*
X0104436Y0024576D01*
X0105753Y0025121D01*
X0106760Y0026129D01*
X0107305Y0027445D01*
X0107305Y0028870D01*
X0106760Y0030186D01*
X0105753Y0031193D01*
X0104436Y0031738D01*
X0103012Y0031738D01*
X0101695Y0031193D01*
X0100688Y0030186D01*
X0100391Y0029469D02*
X0093181Y0029469D01*
X0092974Y0028271D02*
X0100143Y0028271D01*
X0100297Y0027072D02*
X0092253Y0027072D01*
X0086947Y0027072D02*
X0034887Y0027072D01*
X0035168Y0025874D02*
X0100943Y0025874D01*
X0102772Y0024675D02*
X0035168Y0024675D01*
X0034713Y0023477D02*
X0110593Y0023477D01*
X0110097Y0024675D02*
X0104676Y0024675D01*
X0106505Y0025874D02*
X0109669Y0025874D01*
X0109669Y0027072D02*
X0107151Y0027072D01*
X0107305Y0028271D02*
X0109669Y0028271D01*
X0109756Y0029469D02*
X0107057Y0029469D01*
X0106278Y0030668D02*
X0110252Y0030668D01*
X0122677Y0035462D02*
X0127402Y0035462D01*
X0128601Y0034263D02*
X0124451Y0034263D01*
X0125649Y0033065D02*
X0191551Y0033065D01*
X0190749Y0031866D02*
X0174722Y0031866D01*
X0174273Y0032053D02*
X0172455Y0032053D01*
X0170776Y0031357D01*
X0169491Y0030072D01*
X0168795Y0028393D01*
X0168795Y0026576D01*
X0169491Y0024896D01*
X0170776Y0023611D01*
X0172455Y0022916D01*
X0174273Y0022916D01*
X0175952Y0023611D01*
X0177237Y0024896D01*
X0177932Y0026576D01*
X0177932Y0028393D01*
X0177237Y0030072D01*
X0175952Y0031357D01*
X0174273Y0032053D01*
X0172005Y0031866D02*
X0164818Y0031866D01*
X0164591Y0031940D02*
X0163906Y0032049D01*
X0163906Y0027869D01*
X0163137Y0027869D01*
X0163137Y0032049D01*
X0162451Y0031940D01*
X0161768Y0031718D01*
X0161127Y0031392D01*
X0160545Y0030969D01*
X0160037Y0030460D01*
X0159614Y0029879D01*
X0159287Y0029238D01*
X0159065Y0028554D01*
X0158957Y0027869D01*
X0163137Y0027869D01*
X0163137Y0027100D01*
X0158957Y0027100D01*
X0159065Y0026414D01*
X0159287Y0025731D01*
X0159614Y0025090D01*
X0160037Y0024508D01*
X0160545Y0024000D01*
X0161127Y0023577D01*
X0161768Y0023250D01*
X0162451Y0023028D01*
X0163137Y0022920D01*
X0163137Y0027100D01*
X0163906Y0027100D01*
X0163906Y0027869D01*
X0168086Y0027869D01*
X0167977Y0028554D01*
X0167755Y0029238D01*
X0167429Y0029879D01*
X0167006Y0030460D01*
X0166497Y0030969D01*
X0165916Y0031392D01*
X0165275Y0031718D01*
X0164591Y0031940D01*
X0163906Y0031866D02*
X0163137Y0031866D01*
X0162224Y0031866D02*
X0155037Y0031866D01*
X0154587Y0032053D02*
X0152770Y0032053D01*
X0151091Y0031357D01*
X0149806Y0030072D01*
X0149110Y0028393D01*
X0149110Y0026576D01*
X0149806Y0024896D01*
X0151091Y0023611D01*
X0152770Y0022916D01*
X0154587Y0022916D01*
X0156267Y0023611D01*
X0157552Y0024896D01*
X0158247Y0026576D01*
X0158247Y0028393D01*
X0157552Y0030072D01*
X0156267Y0031357D01*
X0154587Y0032053D01*
X0152320Y0031866D02*
X0145195Y0031866D01*
X0144745Y0032053D02*
X0146424Y0031357D01*
X0147709Y0030072D01*
X0148405Y0028393D01*
X0148405Y0026576D01*
X0147709Y0024896D01*
X0146424Y0023611D01*
X0144745Y0022916D01*
X0142927Y0022916D01*
X0141248Y0023611D01*
X0139963Y0024896D01*
X0139268Y0026576D01*
X0139268Y0028393D01*
X0139963Y0030072D01*
X0141248Y0031357D01*
X0142927Y0032053D01*
X0144745Y0032053D01*
X0142478Y0031866D02*
X0126451Y0031866D01*
X0126948Y0030668D02*
X0140559Y0030668D01*
X0139714Y0029469D02*
X0134291Y0029469D01*
X0134725Y0029036D02*
X0133718Y0030043D01*
X0132401Y0030588D01*
X0130977Y0030588D01*
X0129660Y0030043D01*
X0128653Y0029036D01*
X0128108Y0027720D01*
X0128108Y0026295D01*
X0128653Y0024979D01*
X0129660Y0023971D01*
X0130977Y0023426D01*
X0132401Y0023426D01*
X0133718Y0023971D01*
X0134725Y0024979D01*
X0135270Y0026295D01*
X0135270Y0027720D01*
X0134725Y0029036D01*
X0135042Y0028271D02*
X0139268Y0028271D01*
X0139268Y0027072D02*
X0135270Y0027072D01*
X0135096Y0025874D02*
X0139558Y0025874D01*
X0140184Y0024675D02*
X0134421Y0024675D01*
X0132524Y0023477D02*
X0141573Y0023477D01*
X0146099Y0023477D02*
X0151415Y0023477D01*
X0150027Y0024675D02*
X0147488Y0024675D01*
X0148114Y0025874D02*
X0149401Y0025874D01*
X0149110Y0027072D02*
X0148405Y0027072D01*
X0148405Y0028271D02*
X0149110Y0028271D01*
X0149556Y0029469D02*
X0147959Y0029469D01*
X0147113Y0030668D02*
X0150402Y0030668D01*
X0156956Y0030668D02*
X0160244Y0030668D01*
X0163137Y0030668D02*
X0163906Y0030668D01*
X0163906Y0029469D02*
X0163137Y0029469D01*
X0163137Y0028271D02*
X0163906Y0028271D01*
X0163906Y0027100D02*
X0168086Y0027100D01*
X0167977Y0026414D01*
X0167755Y0025731D01*
X0167429Y0025090D01*
X0167006Y0024508D01*
X0166497Y0024000D01*
X0165916Y0023577D01*
X0165275Y0023250D01*
X0164591Y0023028D01*
X0163906Y0022920D01*
X0163906Y0027100D01*
X0163906Y0027072D02*
X0163137Y0027072D01*
X0163137Y0025874D02*
X0163906Y0025874D01*
X0163906Y0024675D02*
X0163137Y0024675D01*
X0163137Y0023477D02*
X0163906Y0023477D01*
X0165719Y0023477D02*
X0171101Y0023477D01*
X0169712Y0024675D02*
X0167127Y0024675D01*
X0167802Y0025874D02*
X0169086Y0025874D01*
X0168795Y0027072D02*
X0168081Y0027072D01*
X0168022Y0028271D02*
X0168795Y0028271D01*
X0169241Y0029469D02*
X0167637Y0029469D01*
X0166798Y0030668D02*
X0170087Y0030668D01*
X0176641Y0030668D02*
X0190252Y0030668D01*
X0189756Y0029469D02*
X0177486Y0029469D01*
X0177932Y0028271D02*
X0189669Y0028271D01*
X0189669Y0027072D02*
X0177932Y0027072D01*
X0177642Y0025874D02*
X0189669Y0025874D01*
X0190097Y0024675D02*
X0177016Y0024675D01*
X0175627Y0023477D02*
X0190593Y0023477D01*
X0191176Y0022278D02*
X0126024Y0022278D01*
X0126607Y0023477D02*
X0130854Y0023477D01*
X0128956Y0024675D02*
X0127103Y0024675D01*
X0127531Y0025874D02*
X0128282Y0025874D01*
X0128108Y0027072D02*
X0127531Y0027072D01*
X0127531Y0028271D02*
X0128336Y0028271D01*
X0129087Y0029469D02*
X0127444Y0029469D01*
X0111176Y0022278D02*
X0033855Y0022278D01*
X0027345Y0022278D02*
X0021855Y0022278D01*
X0034274Y0028271D02*
X0086226Y0028271D01*
X0086019Y0029469D02*
X0057890Y0029469D01*
X0058735Y0030668D02*
X0086214Y0030668D01*
X0086918Y0031866D02*
X0059031Y0031866D01*
X0060654Y0034263D02*
X0072756Y0034263D01*
X0072147Y0035462D02*
X0061874Y0035462D01*
X0062131Y0036660D02*
X0072019Y0036660D01*
X0072293Y0037859D02*
X0062395Y0037859D01*
X0060050Y0041454D02*
X0015200Y0041454D01*
X0015200Y0042653D02*
X0061249Y0042653D01*
X0062447Y0043852D02*
X0015200Y0043852D01*
X0015200Y0045050D02*
X0106755Y0045050D01*
X0106755Y0045690D02*
X0106755Y0044265D01*
X0107300Y0042949D01*
X0108307Y0041941D01*
X0109624Y0041396D01*
X0111048Y0041396D01*
X0112365Y0041941D01*
X0113372Y0042949D01*
X0113917Y0044265D01*
X0113917Y0045690D01*
X0113372Y0047006D01*
X0112365Y0048013D01*
X0111048Y0048558D01*
X0109624Y0048558D01*
X0108307Y0048013D01*
X0107300Y0047006D01*
X0106755Y0045690D01*
X0106986Y0046249D02*
X0015200Y0046249D01*
X0015200Y0047447D02*
X0107741Y0047447D01*
X0112931Y0047447D02*
X0154123Y0047447D01*
X0154019Y0047197D02*
X0154019Y0045772D01*
X0154564Y0044456D01*
X0155571Y0043448D01*
X0156888Y0042903D01*
X0158312Y0042903D01*
X0159629Y0043448D01*
X0160636Y0044456D01*
X0161181Y0045772D01*
X0161181Y0047197D01*
X0160636Y0048513D01*
X0159629Y0049520D01*
X0158312Y0050065D01*
X0156888Y0050065D01*
X0155571Y0049520D01*
X0154564Y0048513D01*
X0154019Y0047197D01*
X0154019Y0046249D02*
X0113686Y0046249D01*
X0113917Y0045050D02*
X0135851Y0045050D01*
X0137349Y0045050D02*
X0154318Y0045050D01*
X0155168Y0043852D02*
X0139297Y0043852D01*
X0139992Y0042653D02*
X0160639Y0042653D01*
X0160032Y0043852D02*
X0161837Y0043852D01*
X0160882Y0045050D02*
X0163036Y0045050D01*
X0164234Y0046249D02*
X0161181Y0046249D01*
X0161077Y0047447D02*
X0165433Y0047447D01*
X0165593Y0048341D02*
X0164276Y0047796D01*
X0162852Y0047796D01*
X0161535Y0048341D01*
X0160528Y0049349D01*
X0159983Y0050665D01*
X0159983Y0052090D01*
X0160528Y0053406D01*
X0161535Y0054413D01*
X0162852Y0054958D01*
X0164276Y0054958D01*
X0165593Y0054413D01*
X0166600Y0053406D01*
X0167145Y0052090D01*
X0167145Y0050665D01*
X0166600Y0049349D01*
X0165593Y0048341D01*
X0165897Y0048646D02*
X0166631Y0048646D01*
X0166805Y0049844D02*
X0167830Y0049844D01*
X0168071Y0051043D02*
X0167145Y0051043D01*
X0167082Y0052241D02*
X0167575Y0052241D01*
X0167529Y0053440D02*
X0166566Y0053440D01*
X0167886Y0054638D02*
X0165049Y0054638D01*
X0162079Y0054638D02*
X0015200Y0054638D01*
X0015200Y0053440D02*
X0160562Y0053440D01*
X0160046Y0052241D02*
X0015200Y0052241D01*
X0015200Y0051043D02*
X0159983Y0051043D01*
X0160323Y0049844D02*
X0158847Y0049844D01*
X0156353Y0049844D02*
X0015200Y0049844D01*
X0015200Y0048646D02*
X0154697Y0048646D01*
X0160503Y0048646D02*
X0161231Y0048646D01*
X0170174Y0046249D02*
X0206000Y0046249D01*
X0206000Y0047447D02*
X0171373Y0047447D01*
X0172571Y0048646D02*
X0206000Y0048646D01*
X0206000Y0049844D02*
X0173210Y0049844D01*
X0174149Y0051043D02*
X0206000Y0051043D01*
X0206000Y0052241D02*
X0174645Y0052241D01*
X0174691Y0053440D02*
X0206000Y0053440D01*
X0206000Y0054638D02*
X0174334Y0054638D01*
X0173402Y0055837D02*
X0206000Y0055837D01*
X0206000Y0057035D02*
X0059103Y0057035D01*
X0059280Y0057212D02*
X0059825Y0058528D01*
X0059825Y0059953D01*
X0059280Y0061269D01*
X0058273Y0062276D01*
X0056956Y0062821D01*
X0055532Y0062821D01*
X0054215Y0062276D01*
X0053208Y0061269D01*
X0052663Y0059953D01*
X0052663Y0058528D01*
X0053208Y0057212D01*
X0054215Y0056204D01*
X0055532Y0055659D01*
X0056956Y0055659D01*
X0058273Y0056204D01*
X0059280Y0057212D01*
X0059703Y0058234D02*
X0206000Y0058234D01*
X0206000Y0059432D02*
X0059825Y0059432D01*
X0059544Y0060631D02*
X0206000Y0060631D01*
X0206000Y0061829D02*
X0058719Y0061829D01*
X0053768Y0061829D02*
X0015200Y0061829D01*
X0015200Y0060631D02*
X0052944Y0060631D01*
X0052663Y0059432D02*
X0015200Y0059432D01*
X0015200Y0058234D02*
X0052785Y0058234D01*
X0053385Y0057035D02*
X0015200Y0057035D01*
X0015200Y0055837D02*
X0055103Y0055837D01*
X0057385Y0055837D02*
X0168818Y0055837D01*
X0168976Y0045050D02*
X0206000Y0045050D01*
X0206000Y0043852D02*
X0167777Y0043852D01*
X0166579Y0042653D02*
X0206000Y0042653D01*
X0206000Y0041454D02*
X0165380Y0041454D01*
X0164182Y0040256D02*
X0206000Y0040256D01*
X0206000Y0039057D02*
X0162983Y0039057D01*
X0161785Y0037859D02*
X0206000Y0037859D01*
X0206000Y0036660D02*
X0160586Y0036660D01*
X0159388Y0035462D02*
X0194523Y0035462D01*
X0192749Y0034263D02*
X0158189Y0034263D01*
X0157801Y0029469D02*
X0159405Y0029469D01*
X0159020Y0028271D02*
X0158247Y0028271D01*
X0158247Y0027072D02*
X0158961Y0027072D01*
X0159241Y0025874D02*
X0157957Y0025874D01*
X0157331Y0024675D02*
X0159915Y0024675D01*
X0161323Y0023477D02*
X0155942Y0023477D01*
X0202677Y0035462D02*
X0206000Y0035462D01*
X0206000Y0034263D02*
X0204451Y0034263D01*
X0205649Y0033065D02*
X0206000Y0033065D01*
X0159440Y0041454D02*
X0140181Y0041454D01*
X0139967Y0040256D02*
X0158242Y0040256D01*
X0157043Y0039057D02*
X0139238Y0039057D01*
X0133962Y0039057D02*
X0129747Y0039057D01*
X0128548Y0040256D02*
X0133233Y0040256D01*
X0133019Y0041454D02*
X0111189Y0041454D01*
X0109483Y0041454D02*
X0106050Y0041454D01*
X0104851Y0042653D02*
X0107596Y0042653D01*
X0106926Y0043852D02*
X0103653Y0043852D01*
X0113076Y0042653D02*
X0133208Y0042653D01*
X0133903Y0043852D02*
X0113746Y0043852D01*
X0053010Y0029469D02*
X0032917Y0029469D01*
D13*
X0055450Y0032094D02*
X0060030Y0036594D01*
X0060030Y0038464D01*
X0064480Y0042914D01*
X0101620Y0042914D01*
X0106070Y0038464D01*
X0127370Y0038464D01*
X0129740Y0036094D01*
X0157050Y0036094D01*
X0171110Y0050154D01*
X0171110Y0053064D01*
M02*
