G75*
%MOIN*%
%OFA0B0*%
%FSLAX25Y25*%
%IPPOS*%
%LPD*%
%AMOC8*
5,1,8,0,0,1.08239X$1,22.5*
%
%ADD10R,0.03937X0.04331*%
%ADD11R,0.04331X0.03937*%
%ADD12C,0.05937*%
%ADD13OC8,0.07000*%
%ADD14R,0.03500X0.06693*%
%ADD15C,0.01200*%
%ADD16C,0.03962*%
%ADD17C,0.01000*%
%ADD18C,0.01600*%
D10*
X0027254Y0036484D03*
X0033946Y0036484D03*
X0058600Y0047138D03*
X0058600Y0053831D03*
D11*
X0033946Y0045378D03*
X0027254Y0045378D03*
X0019407Y0043592D03*
X0019512Y0049922D03*
X0019512Y0056615D03*
X0041092Y0037536D03*
X0041092Y0030843D03*
X0049600Y0030831D03*
X0049600Y0024138D03*
X0019407Y0036899D03*
D12*
X0143836Y0030453D02*
X0143836Y0024516D01*
X0153679Y0024516D02*
X0153679Y0030453D01*
X0163521Y0030453D02*
X0163521Y0024516D01*
X0173364Y0024516D02*
X0173364Y0030453D01*
D13*
X0030600Y0025484D03*
X0018600Y0025484D03*
D14*
X0065494Y0029114D03*
X0070494Y0029114D03*
X0075494Y0029114D03*
X0080494Y0029114D03*
X0080494Y0057854D03*
X0075494Y0057854D03*
X0070494Y0057854D03*
X0065494Y0057854D03*
D15*
X0023700Y0023372D02*
X0022412Y0022084D01*
X0026788Y0022084D01*
X0025500Y0023372D01*
X0025500Y0025100D01*
X0030216Y0025100D01*
X0030216Y0025869D01*
X0030216Y0030584D01*
X0028488Y0030584D01*
X0025500Y0027597D01*
X0025500Y0025869D01*
X0030216Y0025869D01*
X0030984Y0025869D01*
X0030984Y0030584D01*
X0032712Y0030584D01*
X0035700Y0027597D01*
X0035700Y0025869D01*
X0030984Y0025869D01*
X0030984Y0025100D01*
X0035700Y0025100D01*
X0035700Y0023372D01*
X0034412Y0022084D01*
X0045835Y0022084D01*
X0045835Y0023754D01*
X0049216Y0023754D01*
X0049216Y0024522D01*
X0045835Y0024522D01*
X0045835Y0026317D01*
X0045944Y0026724D01*
X0046154Y0027089D01*
X0046452Y0027387D01*
X0046576Y0027458D01*
X0045835Y0028199D01*
X0045835Y0028731D01*
X0044857Y0028731D01*
X0044857Y0028212D01*
X0043920Y0027274D01*
X0038264Y0027274D01*
X0037327Y0028212D01*
X0037327Y0033474D01*
X0038042Y0034189D01*
X0037515Y0034716D01*
X0037515Y0034108D01*
X0037406Y0033701D01*
X0037195Y0033336D01*
X0036897Y0033039D01*
X0036533Y0032828D01*
X0036126Y0032719D01*
X0034331Y0032719D01*
X0034331Y0036100D01*
X0033562Y0036100D01*
X0033562Y0032719D01*
X0031767Y0032719D01*
X0031360Y0032828D01*
X0030996Y0033039D01*
X0030698Y0033336D01*
X0030626Y0033460D01*
X0029885Y0032719D01*
X0024622Y0032719D01*
X0023685Y0033656D01*
X0023685Y0034301D01*
X0023172Y0034324D01*
X0023172Y0034268D01*
X0022235Y0033330D01*
X0021507Y0033330D01*
X0021507Y0031066D01*
X0020914Y0030473D01*
X0020914Y0030383D01*
X0023700Y0027597D01*
X0023700Y0023372D01*
X0023700Y0023477D02*
X0025500Y0023477D01*
X0025500Y0024675D02*
X0023700Y0024675D01*
X0023700Y0025874D02*
X0025500Y0025874D01*
X0025500Y0027072D02*
X0023700Y0027072D01*
X0023026Y0028271D02*
X0026174Y0028271D01*
X0027373Y0029469D02*
X0021827Y0029469D01*
X0021108Y0030668D02*
X0037327Y0030668D01*
X0037327Y0031866D02*
X0021507Y0031866D01*
X0021507Y0033065D02*
X0024276Y0033065D01*
X0023685Y0034263D02*
X0023168Y0034263D01*
X0030231Y0033065D02*
X0030969Y0033065D01*
X0033562Y0033065D02*
X0034331Y0033065D01*
X0034331Y0034263D02*
X0033562Y0034263D01*
X0033562Y0035462D02*
X0034331Y0035462D01*
X0034331Y0036869D02*
X0033562Y0036869D01*
X0033562Y0040250D01*
X0031767Y0040250D01*
X0031360Y0040141D01*
X0030996Y0039930D01*
X0030698Y0039632D01*
X0030626Y0039508D01*
X0029885Y0040250D01*
X0024622Y0040250D01*
X0023685Y0039312D01*
X0023685Y0039106D01*
X0023172Y0039129D01*
X0023172Y0039530D01*
X0022457Y0040245D01*
X0023172Y0040960D01*
X0023172Y0041253D01*
X0024188Y0041189D01*
X0024241Y0041136D01*
X0025046Y0041136D01*
X0025848Y0041086D01*
X0025905Y0041136D01*
X0025981Y0041136D01*
X0026550Y0041704D01*
X0026669Y0041810D01*
X0030082Y0041810D01*
X0030600Y0042328D01*
X0030799Y0042129D01*
X0031164Y0041919D01*
X0031570Y0041810D01*
X0033562Y0041810D01*
X0033562Y0044994D01*
X0034331Y0044994D01*
X0034331Y0045762D01*
X0037712Y0045762D01*
X0037712Y0047557D01*
X0037603Y0047964D01*
X0037392Y0048329D01*
X0037094Y0048627D01*
X0036729Y0048838D01*
X0036322Y0048947D01*
X0034331Y0048947D01*
X0034331Y0045763D01*
X0033562Y0045763D01*
X0033562Y0048947D01*
X0031570Y0048947D01*
X0031164Y0048838D01*
X0030799Y0048627D01*
X0030600Y0048428D01*
X0030082Y0048947D01*
X0024425Y0048947D01*
X0023488Y0048009D01*
X0023488Y0045441D01*
X0023172Y0045461D01*
X0023172Y0046223D01*
X0022691Y0046704D01*
X0023277Y0047291D01*
X0023277Y0052553D01*
X0022562Y0053268D01*
X0023277Y0053983D01*
X0023277Y0059246D01*
X0022340Y0060183D01*
X0021654Y0060183D01*
X0021654Y0060897D01*
X0022671Y0060897D01*
X0062144Y0060839D01*
X0062144Y0056684D01*
X0061231Y0057596D01*
X0055969Y0057596D01*
X0055031Y0056659D01*
X0055031Y0055885D01*
X0054626Y0055885D01*
X0054445Y0055704D01*
X0053629Y0056520D01*
X0052312Y0057065D01*
X0050888Y0057065D01*
X0049571Y0056520D01*
X0048564Y0055513D01*
X0048019Y0054197D01*
X0048019Y0052772D01*
X0048564Y0051456D01*
X0049571Y0050448D01*
X0050888Y0049903D01*
X0052312Y0049903D01*
X0053629Y0050448D01*
X0054564Y0051384D01*
X0055031Y0051384D01*
X0055031Y0051003D01*
X0055550Y0050484D01*
X0055351Y0050286D01*
X0055141Y0049921D01*
X0055031Y0049514D01*
X0055031Y0047522D01*
X0058216Y0047522D01*
X0058216Y0046754D01*
X0055031Y0046754D01*
X0055031Y0045680D01*
X0054900Y0045998D01*
X0053893Y0047005D01*
X0052576Y0047550D01*
X0051152Y0047550D01*
X0049835Y0047005D01*
X0048828Y0045998D01*
X0048657Y0045584D01*
X0041274Y0045584D01*
X0040281Y0044591D01*
X0039051Y0043361D01*
X0039051Y0041104D01*
X0038264Y0041104D01*
X0037327Y0040167D01*
X0037327Y0039404D01*
X0037195Y0039632D01*
X0036897Y0039930D01*
X0036533Y0040141D01*
X0036126Y0040250D01*
X0034331Y0040250D01*
X0034331Y0036869D01*
X0034331Y0037859D02*
X0033562Y0037859D01*
X0033562Y0039057D02*
X0034331Y0039057D01*
X0037416Y0040256D02*
X0022468Y0040256D01*
X0026300Y0041454D02*
X0039051Y0041454D01*
X0037392Y0042427D02*
X0037603Y0042792D01*
X0037712Y0043199D01*
X0037712Y0044994D01*
X0034331Y0044994D01*
X0034331Y0041810D01*
X0036322Y0041810D01*
X0036729Y0041919D01*
X0037094Y0042129D01*
X0037392Y0042427D01*
X0037522Y0042653D02*
X0039051Y0042653D01*
X0039541Y0043852D02*
X0037712Y0043852D01*
X0040740Y0045050D02*
X0034331Y0045050D01*
X0034331Y0043852D02*
X0033562Y0043852D01*
X0033562Y0042653D02*
X0034331Y0042653D01*
X0034331Y0046249D02*
X0033562Y0046249D01*
X0033562Y0047447D02*
X0034331Y0047447D01*
X0034331Y0048646D02*
X0033562Y0048646D01*
X0030831Y0048646D02*
X0030383Y0048646D01*
X0024124Y0048646D02*
X0023277Y0048646D01*
X0023277Y0049844D02*
X0055120Y0049844D01*
X0055031Y0051043D02*
X0054223Y0051043D01*
X0055031Y0048646D02*
X0037062Y0048646D01*
X0037712Y0047447D02*
X0050902Y0047447D01*
X0052826Y0047447D02*
X0058216Y0047447D01*
X0058216Y0046753D02*
X0058984Y0046753D01*
X0058984Y0043372D01*
X0060779Y0043372D01*
X0061186Y0043481D01*
X0061551Y0043692D01*
X0061849Y0043990D01*
X0062059Y0044355D01*
X0062168Y0044762D01*
X0062168Y0046754D01*
X0058984Y0046754D01*
X0058984Y0047522D01*
X0062168Y0047522D01*
X0062168Y0049514D01*
X0062059Y0049921D01*
X0061849Y0050286D01*
X0061650Y0050484D01*
X0062168Y0051003D01*
X0062168Y0051134D01*
X0062268Y0051134D01*
X0062535Y0050980D01*
X0063107Y0051134D01*
X0063700Y0051134D01*
X0063918Y0051352D01*
X0064215Y0051432D01*
X0064511Y0051945D01*
X0064930Y0052364D01*
X0064930Y0052672D01*
X0065066Y0052908D01*
X0067906Y0052908D01*
X0067994Y0052995D01*
X0068081Y0052908D01*
X0068190Y0052908D01*
X0068163Y0052254D01*
X0068197Y0052217D01*
X0068197Y0041617D01*
X0068230Y0041584D01*
X0054730Y0041584D01*
X0053500Y0040354D01*
X0053192Y0040046D01*
X0052872Y0040366D01*
X0052697Y0040438D01*
X0053893Y0040933D01*
X0054900Y0041941D01*
X0055445Y0043257D01*
X0055445Y0043896D01*
X0055649Y0043692D01*
X0056014Y0043481D01*
X0056421Y0043372D01*
X0058216Y0043372D01*
X0058216Y0046753D01*
X0058216Y0046249D02*
X0058984Y0046249D01*
X0058984Y0047447D02*
X0068197Y0047447D01*
X0068197Y0046249D02*
X0062168Y0046249D01*
X0062168Y0045050D02*
X0068197Y0045050D01*
X0068197Y0043852D02*
X0061710Y0043852D01*
X0058984Y0043852D02*
X0058216Y0043852D01*
X0055490Y0043852D02*
X0055445Y0043852D01*
X0055195Y0042653D02*
X0068197Y0042653D01*
X0058984Y0045050D02*
X0058216Y0045050D01*
X0055031Y0046249D02*
X0054649Y0046249D01*
X0049079Y0046249D02*
X0037712Y0046249D01*
X0048977Y0051043D02*
X0023277Y0051043D01*
X0023277Y0052241D02*
X0048239Y0052241D01*
X0048019Y0053440D02*
X0022733Y0053440D01*
X0023277Y0054638D02*
X0048202Y0054638D01*
X0048888Y0055837D02*
X0023277Y0055837D01*
X0023277Y0057035D02*
X0050815Y0057035D01*
X0052385Y0057035D02*
X0055408Y0057035D01*
X0054578Y0055837D02*
X0054312Y0055837D01*
X0061792Y0057035D02*
X0062144Y0057035D01*
X0062144Y0058234D02*
X0023277Y0058234D01*
X0023091Y0059432D02*
X0062144Y0059432D01*
X0062144Y0060631D02*
X0021654Y0060631D01*
X0062168Y0051043D02*
X0062427Y0051043D01*
X0062766Y0051043D02*
X0068197Y0051043D01*
X0068197Y0049844D02*
X0062080Y0049844D01*
X0062168Y0048646D02*
X0068197Y0048646D01*
X0077566Y0048646D02*
X0108236Y0048646D01*
X0108236Y0047942D02*
X0107300Y0047006D01*
X0106755Y0045690D01*
X0106755Y0044265D01*
X0107300Y0042949D01*
X0108307Y0041941D01*
X0109624Y0041396D01*
X0111048Y0041396D01*
X0112365Y0041941D01*
X0113372Y0042949D01*
X0113917Y0044265D01*
X0113917Y0045690D01*
X0113372Y0047006D01*
X0112436Y0047942D01*
X0112436Y0055698D01*
X0109400Y0058734D01*
X0109400Y0058735D01*
X0108785Y0059349D01*
X0108170Y0059964D01*
X0108169Y0059964D01*
X0108169Y0059965D01*
X0107306Y0059964D01*
X0106430Y0059964D01*
X0083844Y0059956D01*
X0083844Y0061864D01*
X0082906Y0062801D01*
X0078081Y0062801D01*
X0077994Y0062714D01*
X0077906Y0062801D01*
X0076223Y0062801D01*
X0076140Y0062884D01*
X0206000Y0062884D01*
X0206000Y0032714D01*
X0203659Y0035055D01*
X0200376Y0036415D01*
X0196824Y0036415D01*
X0193541Y0035055D01*
X0191029Y0032543D01*
X0189669Y0029261D01*
X0189669Y0025708D01*
X0191029Y0022425D01*
X0191370Y0022084D01*
X0177244Y0022084D01*
X0177271Y0022121D01*
X0177598Y0022762D01*
X0177820Y0023446D01*
X0177932Y0024156D01*
X0177932Y0027100D01*
X0173748Y0027100D01*
X0173748Y0027869D01*
X0172980Y0027869D01*
X0172980Y0035017D01*
X0172294Y0034909D01*
X0171610Y0034687D01*
X0170969Y0034360D01*
X0170388Y0033937D01*
X0169879Y0033429D01*
X0169456Y0032847D01*
X0169130Y0032206D01*
X0168908Y0031523D01*
X0168795Y0030812D01*
X0168795Y0027869D01*
X0172979Y0027869D01*
X0172979Y0027100D01*
X0168795Y0027100D01*
X0168795Y0024156D01*
X0168908Y0023446D01*
X0169130Y0022762D01*
X0169456Y0022121D01*
X0169483Y0022084D01*
X0167459Y0022084D01*
X0168090Y0023607D01*
X0168090Y0031361D01*
X0167394Y0033041D01*
X0166109Y0034326D01*
X0164430Y0035021D01*
X0162613Y0035021D01*
X0160933Y0034326D01*
X0159648Y0033041D01*
X0158953Y0031361D01*
X0158953Y0023607D01*
X0159584Y0022084D01*
X0157616Y0022084D01*
X0158247Y0023607D01*
X0158247Y0031361D01*
X0157552Y0033041D01*
X0156267Y0034326D01*
X0154587Y0035021D01*
X0152770Y0035021D01*
X0151091Y0034326D01*
X0149806Y0033041D01*
X0149110Y0031361D01*
X0149110Y0023607D01*
X0149741Y0022084D01*
X0147774Y0022084D01*
X0148405Y0023607D01*
X0148405Y0031361D01*
X0147709Y0033041D01*
X0146424Y0034326D01*
X0144745Y0035021D01*
X0142927Y0035021D01*
X0141248Y0034326D01*
X0139963Y0033041D01*
X0139268Y0031361D01*
X0139268Y0023607D01*
X0139898Y0022084D01*
X0125830Y0022084D01*
X0126171Y0022425D01*
X0127531Y0025708D01*
X0127531Y0029261D01*
X0126171Y0032543D01*
X0123659Y0035055D01*
X0120376Y0036415D01*
X0116824Y0036415D01*
X0113541Y0035055D01*
X0111029Y0032543D01*
X0109669Y0029261D01*
X0109669Y0025708D01*
X0111029Y0022425D01*
X0111370Y0022084D01*
X0091691Y0022084D01*
X0091691Y0026511D01*
X0092636Y0027456D01*
X0093181Y0028772D01*
X0093181Y0030197D01*
X0092636Y0031513D01*
X0091629Y0032520D01*
X0090312Y0033065D01*
X0088888Y0033065D01*
X0087571Y0032520D01*
X0086564Y0031513D01*
X0086019Y0030197D01*
X0086019Y0028772D01*
X0086564Y0027456D01*
X0087491Y0026529D01*
X0087491Y0024152D01*
X0059508Y0024152D01*
X0059508Y0024528D01*
X0058278Y0025758D01*
X0056424Y0027612D01*
X0056424Y0027620D01*
X0055531Y0028513D01*
X0056162Y0028513D01*
X0057479Y0029058D01*
X0058486Y0030066D01*
X0059031Y0031382D01*
X0059031Y0032807D01*
X0058486Y0034123D01*
X0057479Y0035130D01*
X0056162Y0035675D01*
X0054761Y0035675D01*
X0056470Y0037384D01*
X0068730Y0037384D01*
X0069730Y0036384D01*
X0072019Y0036384D01*
X0072019Y0035772D01*
X0072564Y0034456D01*
X0073020Y0034000D01*
X0072994Y0033973D01*
X0072906Y0034061D01*
X0068081Y0034061D01*
X0067994Y0033973D01*
X0067906Y0034061D01*
X0063081Y0034061D01*
X0062144Y0033123D01*
X0062144Y0025105D01*
X0063081Y0024168D01*
X0067906Y0024168D01*
X0067994Y0024255D01*
X0068081Y0024168D01*
X0072906Y0024168D01*
X0072994Y0024255D01*
X0073081Y0024168D01*
X0077906Y0024168D01*
X0078056Y0024317D01*
X0078126Y0024277D01*
X0078533Y0024168D01*
X0080219Y0024168D01*
X0080219Y0028839D01*
X0080769Y0028839D01*
X0080769Y0029389D01*
X0083844Y0029389D01*
X0083844Y0032671D01*
X0083735Y0033078D01*
X0083524Y0033443D01*
X0083226Y0033741D01*
X0082861Y0033952D01*
X0082454Y0034061D01*
X0080769Y0034061D01*
X0080769Y0029389D01*
X0080219Y0029389D01*
X0080219Y0034061D01*
X0078533Y0034061D01*
X0078134Y0033954D01*
X0078636Y0034456D01*
X0079181Y0035772D01*
X0079181Y0037197D01*
X0078636Y0038513D01*
X0077872Y0039276D01*
X0086838Y0039276D01*
X0087003Y0039111D01*
X0087003Y0039111D01*
X0087500Y0038614D01*
X0087500Y0037614D01*
X0089500Y0035614D01*
X0090730Y0034384D01*
X0095179Y0034384D01*
X0095564Y0033456D01*
X0096571Y0032448D01*
X0097888Y0031903D01*
X0099312Y0031903D01*
X0100629Y0032448D01*
X0101636Y0033456D01*
X0102181Y0034772D01*
X0102181Y0036197D01*
X0101636Y0037513D01*
X0100629Y0038520D01*
X0099312Y0039065D01*
X0097888Y0039065D01*
X0096726Y0038584D01*
X0092470Y0038584D01*
X0091840Y0039214D01*
X0100693Y0039214D01*
X0102730Y0037177D01*
X0104470Y0037177D01*
X0105700Y0038407D01*
X0105700Y0040147D01*
X0103663Y0042184D01*
X0102433Y0043414D01*
X0093185Y0043414D01*
X0092127Y0044472D01*
X0092127Y0044477D01*
X0091514Y0045085D01*
X0090901Y0045698D01*
X0090896Y0045698D01*
X0090892Y0045702D01*
X0090028Y0045698D01*
X0089161Y0045698D01*
X0089158Y0045695D01*
X0077938Y0045650D01*
X0077566Y0046022D01*
X0077566Y0052908D01*
X0077906Y0052908D01*
X0077994Y0052995D01*
X0078081Y0052908D01*
X0082906Y0052908D01*
X0083844Y0053845D01*
X0083844Y0055756D01*
X0106430Y0055764D01*
X0108236Y0053958D01*
X0108236Y0047942D01*
X0107741Y0047447D02*
X0077566Y0047447D01*
X0077566Y0046249D02*
X0106986Y0046249D01*
X0106755Y0045050D02*
X0091549Y0045050D01*
X0092748Y0043852D02*
X0106926Y0043852D01*
X0107596Y0042653D02*
X0103194Y0042653D01*
X0104393Y0041454D02*
X0109483Y0041454D01*
X0111189Y0041454D02*
X0147019Y0041454D01*
X0147019Y0040772D02*
X0147564Y0039456D01*
X0148571Y0038448D01*
X0149888Y0037903D01*
X0151312Y0037903D01*
X0152629Y0038448D01*
X0153636Y0039456D01*
X0154181Y0040772D01*
X0154181Y0042197D01*
X0153636Y0043513D01*
X0152629Y0044520D01*
X0151312Y0045065D01*
X0149888Y0045065D01*
X0148571Y0044520D01*
X0147564Y0043513D01*
X0147019Y0042197D01*
X0147019Y0040772D01*
X0147233Y0040256D02*
X0105591Y0040256D01*
X0105700Y0039057D02*
X0147962Y0039057D01*
X0153238Y0039057D02*
X0206000Y0039057D01*
X0206000Y0040256D02*
X0153967Y0040256D01*
X0154181Y0041454D02*
X0206000Y0041454D01*
X0206000Y0042653D02*
X0153992Y0042653D01*
X0153297Y0043852D02*
X0206000Y0043852D01*
X0206000Y0045050D02*
X0151349Y0045050D01*
X0149851Y0045050D02*
X0113917Y0045050D01*
X0113746Y0043852D02*
X0147903Y0043852D01*
X0147208Y0042653D02*
X0113076Y0042653D01*
X0113686Y0046249D02*
X0206000Y0046249D01*
X0206000Y0047447D02*
X0112931Y0047447D01*
X0112436Y0048646D02*
X0161231Y0048646D01*
X0161535Y0048341D02*
X0162852Y0047796D01*
X0164276Y0047796D01*
X0165593Y0048341D01*
X0166600Y0049349D01*
X0167145Y0050665D01*
X0167145Y0052090D01*
X0166600Y0053406D01*
X0165593Y0054413D01*
X0164276Y0054958D01*
X0162852Y0054958D01*
X0161535Y0054413D01*
X0160528Y0053406D01*
X0159983Y0052090D01*
X0159983Y0050665D01*
X0160528Y0049349D01*
X0161535Y0048341D01*
X0160323Y0049844D02*
X0112436Y0049844D01*
X0112436Y0051043D02*
X0159983Y0051043D01*
X0160046Y0052241D02*
X0112436Y0052241D01*
X0112436Y0053440D02*
X0160562Y0053440D01*
X0162079Y0054638D02*
X0112436Y0054638D01*
X0112297Y0055837D02*
X0168818Y0055837D01*
X0169081Y0056100D02*
X0168074Y0055093D01*
X0167529Y0053777D01*
X0167529Y0052352D01*
X0168074Y0051036D01*
X0169081Y0050028D01*
X0170398Y0049483D01*
X0171822Y0049483D01*
X0173139Y0050028D01*
X0174146Y0051036D01*
X0174691Y0052352D01*
X0174691Y0053777D01*
X0174146Y0055093D01*
X0173139Y0056100D01*
X0171822Y0056645D01*
X0170398Y0056645D01*
X0169081Y0056100D01*
X0167886Y0054638D02*
X0165049Y0054638D01*
X0166566Y0053440D02*
X0167529Y0053440D01*
X0167575Y0052241D02*
X0167082Y0052241D01*
X0167145Y0051043D02*
X0168071Y0051043D01*
X0166805Y0049844D02*
X0169526Y0049844D01*
X0172694Y0049844D02*
X0206000Y0049844D01*
X0206000Y0051043D02*
X0174149Y0051043D01*
X0174645Y0052241D02*
X0206000Y0052241D01*
X0206000Y0053440D02*
X0174691Y0053440D01*
X0174334Y0054638D02*
X0206000Y0054638D01*
X0206000Y0055837D02*
X0173402Y0055837D01*
X0165897Y0048646D02*
X0206000Y0048646D01*
X0206000Y0057035D02*
X0111099Y0057035D01*
X0109900Y0058234D02*
X0206000Y0058234D01*
X0206000Y0059432D02*
X0108702Y0059432D01*
X0106430Y0059964D02*
X0106430Y0059964D01*
X0107556Y0054638D02*
X0083844Y0054638D01*
X0083438Y0053440D02*
X0108236Y0053440D01*
X0108236Y0052241D02*
X0077566Y0052241D01*
X0077566Y0051043D02*
X0108236Y0051043D01*
X0108236Y0049844D02*
X0077566Y0049844D01*
X0068175Y0052241D02*
X0064807Y0052241D01*
X0083844Y0060631D02*
X0206000Y0060631D01*
X0206000Y0061829D02*
X0083844Y0061829D01*
X0054600Y0041454D02*
X0054414Y0041454D01*
X0053402Y0040256D02*
X0052982Y0040256D01*
X0055746Y0036660D02*
X0069454Y0036660D01*
X0072147Y0035462D02*
X0056678Y0035462D01*
X0058345Y0034263D02*
X0072756Y0034263D01*
X0078444Y0034263D02*
X0095230Y0034263D01*
X0095955Y0033065D02*
X0090313Y0033065D01*
X0088887Y0033065D02*
X0083738Y0033065D01*
X0083844Y0031866D02*
X0086918Y0031866D01*
X0086214Y0030668D02*
X0083844Y0030668D01*
X0080769Y0030668D02*
X0080219Y0030668D01*
X0080219Y0031866D02*
X0080769Y0031866D01*
X0080769Y0033065D02*
X0080219Y0033065D01*
X0079053Y0035462D02*
X0089652Y0035462D01*
X0088454Y0036660D02*
X0079181Y0036660D01*
X0078907Y0037859D02*
X0087500Y0037859D01*
X0087057Y0039057D02*
X0078091Y0039057D01*
X0091997Y0039057D02*
X0097869Y0039057D01*
X0099331Y0039057D02*
X0100850Y0039057D01*
X0101290Y0037859D02*
X0102048Y0037859D01*
X0105152Y0037859D02*
X0206000Y0037859D01*
X0206000Y0036660D02*
X0101989Y0036660D01*
X0102181Y0035462D02*
X0114523Y0035462D01*
X0112749Y0034263D02*
X0101970Y0034263D01*
X0101245Y0033065D02*
X0111551Y0033065D01*
X0110749Y0031866D02*
X0092282Y0031866D01*
X0092986Y0030668D02*
X0110252Y0030668D01*
X0109756Y0029469D02*
X0093181Y0029469D01*
X0092974Y0028271D02*
X0109669Y0028271D01*
X0109669Y0027072D02*
X0092253Y0027072D01*
X0091691Y0025874D02*
X0109669Y0025874D01*
X0110097Y0024675D02*
X0091691Y0024675D01*
X0091691Y0023477D02*
X0110593Y0023477D01*
X0111176Y0022278D02*
X0091691Y0022278D01*
X0087491Y0024675D02*
X0083414Y0024675D01*
X0083524Y0024785D02*
X0083735Y0025150D01*
X0083844Y0025557D01*
X0083844Y0028839D01*
X0080769Y0028839D01*
X0080769Y0024168D01*
X0082454Y0024168D01*
X0082861Y0024277D01*
X0083226Y0024487D01*
X0083524Y0024785D01*
X0083844Y0025874D02*
X0087491Y0025874D01*
X0086947Y0027072D02*
X0083844Y0027072D01*
X0080769Y0027072D02*
X0080219Y0027072D01*
X0080219Y0025874D02*
X0080769Y0025874D01*
X0080769Y0024675D02*
X0080219Y0024675D01*
X0080219Y0028271D02*
X0080769Y0028271D01*
X0080769Y0029469D02*
X0080219Y0029469D01*
X0083844Y0029469D02*
X0086019Y0029469D01*
X0086226Y0028271D02*
X0083844Y0028271D01*
X0062573Y0024675D02*
X0059361Y0024675D01*
X0058162Y0025874D02*
X0062144Y0025874D01*
X0062144Y0027072D02*
X0056964Y0027072D01*
X0055773Y0028271D02*
X0062144Y0028271D01*
X0062144Y0029469D02*
X0057890Y0029469D01*
X0058735Y0030668D02*
X0062144Y0030668D01*
X0062144Y0031866D02*
X0059031Y0031866D01*
X0058924Y0033065D02*
X0062144Y0033065D01*
X0045835Y0028271D02*
X0044857Y0028271D01*
X0046145Y0027072D02*
X0035700Y0027072D01*
X0035700Y0025874D02*
X0045835Y0025874D01*
X0045835Y0024675D02*
X0035700Y0024675D01*
X0035700Y0023477D02*
X0045835Y0023477D01*
X0045835Y0022278D02*
X0034607Y0022278D01*
X0026593Y0022278D02*
X0022607Y0022278D01*
X0030216Y0025874D02*
X0030984Y0025874D01*
X0030984Y0027072D02*
X0030216Y0027072D01*
X0030216Y0028271D02*
X0030984Y0028271D01*
X0030984Y0029469D02*
X0030216Y0029469D01*
X0033827Y0029469D02*
X0037327Y0029469D01*
X0037327Y0028271D02*
X0035026Y0028271D01*
X0036924Y0033065D02*
X0037327Y0033065D01*
X0037515Y0034263D02*
X0037968Y0034263D01*
X0049984Y0024522D02*
X0053365Y0024522D01*
X0053365Y0024731D01*
X0053454Y0024642D01*
X0055308Y0022788D01*
X0055308Y0022107D01*
X0055331Y0022084D01*
X0053365Y0022084D01*
X0053365Y0023754D01*
X0049984Y0023754D01*
X0049984Y0024522D01*
X0053365Y0024675D02*
X0053421Y0024675D01*
X0053454Y0024642D02*
X0053454Y0024642D01*
X0053365Y0023477D02*
X0054620Y0023477D01*
X0055308Y0022278D02*
X0053365Y0022278D01*
X0122677Y0035462D02*
X0194523Y0035462D01*
X0192749Y0034263D02*
X0175891Y0034263D01*
X0175758Y0034360D02*
X0175117Y0034687D01*
X0174434Y0034909D01*
X0173748Y0035017D01*
X0173748Y0027869D01*
X0177932Y0027869D01*
X0177932Y0030812D01*
X0177820Y0031523D01*
X0177598Y0032206D01*
X0177271Y0032847D01*
X0176848Y0033429D01*
X0176340Y0033937D01*
X0175758Y0034360D01*
X0173748Y0034263D02*
X0172980Y0034263D01*
X0170836Y0034263D02*
X0166171Y0034263D01*
X0167370Y0033065D02*
X0169615Y0033065D01*
X0169019Y0031866D02*
X0167881Y0031866D01*
X0168090Y0030668D02*
X0168795Y0030668D01*
X0168795Y0029469D02*
X0168090Y0029469D01*
X0168090Y0028271D02*
X0168795Y0028271D01*
X0168795Y0027072D02*
X0168090Y0027072D01*
X0168090Y0025874D02*
X0168795Y0025874D01*
X0168795Y0024675D02*
X0168090Y0024675D01*
X0168036Y0023477D02*
X0168903Y0023477D01*
X0169376Y0022278D02*
X0167539Y0022278D01*
X0159503Y0022278D02*
X0157697Y0022278D01*
X0158193Y0023477D02*
X0159007Y0023477D01*
X0158953Y0024675D02*
X0158247Y0024675D01*
X0158247Y0025874D02*
X0158953Y0025874D01*
X0158953Y0027072D02*
X0158247Y0027072D01*
X0158247Y0028271D02*
X0158953Y0028271D01*
X0158953Y0029469D02*
X0158247Y0029469D01*
X0158247Y0030668D02*
X0158953Y0030668D01*
X0159162Y0031866D02*
X0158038Y0031866D01*
X0157527Y0033065D02*
X0159673Y0033065D01*
X0160871Y0034263D02*
X0156329Y0034263D01*
X0151029Y0034263D02*
X0146486Y0034263D01*
X0147685Y0033065D02*
X0149830Y0033065D01*
X0149319Y0031866D02*
X0148196Y0031866D01*
X0148405Y0030668D02*
X0149110Y0030668D01*
X0149110Y0029469D02*
X0148405Y0029469D01*
X0148405Y0028271D02*
X0149110Y0028271D01*
X0149110Y0027072D02*
X0148405Y0027072D01*
X0148405Y0025874D02*
X0149110Y0025874D01*
X0149110Y0024675D02*
X0148405Y0024675D01*
X0148351Y0023477D02*
X0149164Y0023477D01*
X0149661Y0022278D02*
X0147854Y0022278D01*
X0139818Y0022278D02*
X0126024Y0022278D01*
X0126607Y0023477D02*
X0139322Y0023477D01*
X0139268Y0024675D02*
X0127103Y0024675D01*
X0127531Y0025874D02*
X0139268Y0025874D01*
X0139268Y0027072D02*
X0127531Y0027072D01*
X0127531Y0028271D02*
X0139268Y0028271D01*
X0139268Y0029469D02*
X0127444Y0029469D01*
X0126948Y0030668D02*
X0139268Y0030668D01*
X0139477Y0031866D02*
X0126451Y0031866D01*
X0125649Y0033065D02*
X0139988Y0033065D01*
X0141186Y0034263D02*
X0124451Y0034263D01*
X0172980Y0033065D02*
X0173748Y0033065D01*
X0173748Y0031866D02*
X0172980Y0031866D01*
X0177113Y0033065D02*
X0191551Y0033065D01*
X0190749Y0031866D02*
X0177708Y0031866D01*
X0177932Y0030668D02*
X0190252Y0030668D01*
X0189756Y0029469D02*
X0177932Y0029469D01*
X0177932Y0028271D02*
X0189669Y0028271D01*
X0189669Y0027072D02*
X0177932Y0027072D01*
X0177932Y0025874D02*
X0189669Y0025874D01*
X0190097Y0024675D02*
X0177932Y0024675D01*
X0177825Y0023477D02*
X0190593Y0023477D01*
X0191176Y0022278D02*
X0177351Y0022278D01*
X0173748Y0028271D02*
X0172980Y0028271D01*
X0172980Y0029469D02*
X0173748Y0029469D01*
X0173748Y0030668D02*
X0172980Y0030668D01*
X0202677Y0035462D02*
X0206000Y0035462D01*
X0206000Y0034263D02*
X0204451Y0034263D01*
X0205649Y0033065D02*
X0206000Y0033065D01*
X0023488Y0046249D02*
X0023147Y0046249D01*
X0023277Y0047447D02*
X0023488Y0047447D01*
D16*
X0051864Y0043969D03*
X0050843Y0037330D03*
X0055450Y0032094D03*
X0075600Y0036484D03*
X0089600Y0029484D03*
X0103724Y0028157D03*
X0098600Y0035484D03*
X0110336Y0044977D03*
X0136600Y0041484D03*
X0150600Y0041484D03*
X0157600Y0046484D03*
X0163564Y0051377D03*
X0171110Y0053064D03*
X0131689Y0027007D03*
X0051600Y0053484D03*
X0056244Y0059240D03*
D17*
X0062830Y0053234D02*
X0065494Y0057854D01*
X0070494Y0057854D02*
X0070297Y0053037D01*
X0070297Y0042487D01*
X0071408Y0041376D01*
X0087708Y0041376D01*
X0087873Y0041211D01*
X0089600Y0039484D01*
X0089600Y0038484D01*
X0091600Y0036484D01*
X0097600Y0036484D01*
X0098600Y0035484D01*
X0103600Y0039277D02*
X0101563Y0041314D01*
X0092315Y0041314D01*
X0090031Y0043598D01*
X0077072Y0043546D01*
X0075466Y0045152D01*
X0075466Y0057827D01*
X0075494Y0057854D01*
X0075494Y0060561D01*
X0073132Y0062922D01*
X0022675Y0062997D01*
X0020230Y0062997D01*
X0019554Y0062321D01*
X0019554Y0056657D01*
X0019512Y0056615D01*
X0019512Y0049922D02*
X0019512Y0043697D01*
X0019407Y0043592D01*
X0025111Y0043236D01*
X0027254Y0045378D01*
X0041151Y0042491D02*
X0041151Y0037595D01*
X0041092Y0037536D01*
X0050843Y0037330D02*
X0053446Y0037330D01*
X0055600Y0039484D01*
X0069600Y0039484D01*
X0070600Y0038484D01*
X0073600Y0038484D01*
X0075600Y0036484D01*
X0075600Y0029220D01*
X0075494Y0029114D01*
X0089591Y0029475D02*
X0089600Y0029484D01*
X0089591Y0029475D02*
X0089591Y0022625D01*
X0089018Y0022052D01*
X0058333Y0022052D01*
X0057408Y0022977D01*
X0057408Y0023658D01*
X0054324Y0026742D01*
X0054324Y0026750D01*
X0052170Y0028904D01*
X0051526Y0028904D01*
X0049600Y0030831D01*
X0043104Y0030831D01*
X0041092Y0030843D01*
X0027254Y0036484D02*
X0027195Y0036543D01*
X0019407Y0036899D02*
X0019407Y0031936D01*
X0018814Y0031343D01*
X0018814Y0025698D01*
X0018600Y0025484D01*
X0041151Y0042491D02*
X0042144Y0043484D01*
X0051379Y0043484D01*
X0062156Y0053908D02*
X0062830Y0053234D01*
X0062156Y0053908D02*
X0058678Y0053908D01*
X0058600Y0053831D01*
X0058555Y0053785D01*
X0055496Y0053785D01*
X0055195Y0053484D01*
X0051600Y0053484D01*
X0080494Y0057854D02*
X0107300Y0057864D01*
X0110336Y0054828D01*
X0110336Y0044977D01*
X0087873Y0041376D02*
X0087873Y0041211D01*
D18*
X0051864Y0043969D02*
X0051379Y0043484D01*
X0027195Y0036543D02*
X0019407Y0036899D01*
M02*
