G75*
%MOIN*%
%OFA0B0*%
%FSLAX25Y25*%
%IPPOS*%
%LPD*%
%AMOC8*
5,1,8,0,0,1.08239X$1,22.5*
%
%ADD10C,0.09461*%
%ADD11R,0.04737X0.05131*%
%ADD12R,0.05131X0.04737*%
%ADD13C,0.06737*%
%ADD14OC8,0.07800*%
%ADD15R,0.04300X0.07493*%
%ADD16C,0.04762*%
D10*
X0118600Y0027484D03*
X0198600Y0027484D03*
D11*
X0058600Y0047138D03*
X0058600Y0053831D03*
X0033946Y0036484D03*
X0027254Y0036484D03*
D12*
X0049600Y0024138D03*
X0049600Y0030831D03*
X0041092Y0030843D03*
X0041092Y0037536D03*
X0033946Y0045378D03*
X0027254Y0045378D03*
X0019407Y0043592D03*
X0019512Y0049922D03*
X0019512Y0056615D03*
X0019407Y0036899D03*
D13*
X0143836Y0030453D02*
X0143836Y0024516D01*
X0153679Y0024516D02*
X0153679Y0030453D01*
X0163521Y0030453D02*
X0163521Y0024516D01*
X0173364Y0024516D02*
X0173364Y0030453D01*
D14*
X0030600Y0025484D03*
X0018600Y0025484D03*
D15*
X0065494Y0029114D03*
X0070494Y0029114D03*
X0075494Y0029114D03*
X0080494Y0029114D03*
X0080494Y0057854D03*
X0075494Y0057854D03*
X0070494Y0057854D03*
X0065494Y0057854D03*
D16*
X0056244Y0059240D03*
X0051600Y0053484D03*
X0051864Y0043969D03*
X0050843Y0037330D03*
X0055450Y0032094D03*
X0075600Y0036484D03*
X0089600Y0029484D03*
X0103724Y0028157D03*
X0098600Y0035484D03*
X0110336Y0044977D03*
X0136600Y0041484D03*
X0150600Y0041484D03*
X0157600Y0046484D03*
X0163564Y0051377D03*
X0171110Y0053064D03*
X0131689Y0027007D03*
M02*
