G75*
%MOIN*%
%OFA0B0*%
%FSLAX25Y25*%
%IPPOS*%
%LPD*%
%AMOC8*
5,1,8,0,0,1.08239X$1,22.5*
%
%ADD10C,0.00000*%
%ADD11C,0.00300*%
%ADD12C,0.01000*%
%ADD13C,0.00500*%
D10*
X0010600Y0017484D02*
X0010600Y0067484D01*
X0210600Y0067484D01*
X0210600Y0017484D01*
X0010600Y0017484D01*
X0114269Y0027484D02*
X0114271Y0027615D01*
X0114277Y0027747D01*
X0114287Y0027878D01*
X0114301Y0028009D01*
X0114319Y0028139D01*
X0114341Y0028268D01*
X0114366Y0028397D01*
X0114396Y0028525D01*
X0114430Y0028652D01*
X0114467Y0028779D01*
X0114508Y0028903D01*
X0114553Y0029027D01*
X0114602Y0029149D01*
X0114654Y0029270D01*
X0114710Y0029388D01*
X0114770Y0029506D01*
X0114833Y0029621D01*
X0114900Y0029734D01*
X0114970Y0029846D01*
X0115043Y0029955D01*
X0115119Y0030061D01*
X0115199Y0030166D01*
X0115282Y0030268D01*
X0115368Y0030367D01*
X0115457Y0030464D01*
X0115549Y0030558D01*
X0115644Y0030649D01*
X0115741Y0030738D01*
X0115841Y0030823D01*
X0115944Y0030905D01*
X0116049Y0030984D01*
X0116156Y0031060D01*
X0116266Y0031132D01*
X0116378Y0031201D01*
X0116492Y0031267D01*
X0116607Y0031329D01*
X0116725Y0031388D01*
X0116844Y0031443D01*
X0116965Y0031495D01*
X0117088Y0031542D01*
X0117212Y0031586D01*
X0117337Y0031627D01*
X0117463Y0031663D01*
X0117591Y0031696D01*
X0117719Y0031724D01*
X0117848Y0031749D01*
X0117978Y0031770D01*
X0118108Y0031787D01*
X0118239Y0031800D01*
X0118370Y0031809D01*
X0118501Y0031814D01*
X0118633Y0031815D01*
X0118764Y0031812D01*
X0118896Y0031805D01*
X0119027Y0031794D01*
X0119157Y0031779D01*
X0119287Y0031760D01*
X0119417Y0031737D01*
X0119545Y0031711D01*
X0119673Y0031680D01*
X0119800Y0031645D01*
X0119926Y0031607D01*
X0120050Y0031565D01*
X0120174Y0031519D01*
X0120295Y0031469D01*
X0120415Y0031416D01*
X0120534Y0031359D01*
X0120651Y0031299D01*
X0120765Y0031235D01*
X0120878Y0031167D01*
X0120989Y0031096D01*
X0121098Y0031022D01*
X0121204Y0030945D01*
X0121308Y0030864D01*
X0121409Y0030781D01*
X0121508Y0030694D01*
X0121604Y0030604D01*
X0121697Y0030511D01*
X0121788Y0030416D01*
X0121875Y0030318D01*
X0121960Y0030217D01*
X0122041Y0030114D01*
X0122119Y0030008D01*
X0122194Y0029900D01*
X0122266Y0029790D01*
X0122334Y0029678D01*
X0122399Y0029564D01*
X0122460Y0029447D01*
X0122518Y0029329D01*
X0122572Y0029209D01*
X0122623Y0029088D01*
X0122670Y0028965D01*
X0122713Y0028841D01*
X0122752Y0028716D01*
X0122788Y0028589D01*
X0122819Y0028461D01*
X0122847Y0028333D01*
X0122871Y0028204D01*
X0122891Y0028074D01*
X0122907Y0027943D01*
X0122919Y0027812D01*
X0122927Y0027681D01*
X0122931Y0027550D01*
X0122931Y0027418D01*
X0122927Y0027287D01*
X0122919Y0027156D01*
X0122907Y0027025D01*
X0122891Y0026894D01*
X0122871Y0026764D01*
X0122847Y0026635D01*
X0122819Y0026507D01*
X0122788Y0026379D01*
X0122752Y0026252D01*
X0122713Y0026127D01*
X0122670Y0026003D01*
X0122623Y0025880D01*
X0122572Y0025759D01*
X0122518Y0025639D01*
X0122460Y0025521D01*
X0122399Y0025404D01*
X0122334Y0025290D01*
X0122266Y0025178D01*
X0122194Y0025068D01*
X0122119Y0024960D01*
X0122041Y0024854D01*
X0121960Y0024751D01*
X0121875Y0024650D01*
X0121788Y0024552D01*
X0121697Y0024457D01*
X0121604Y0024364D01*
X0121508Y0024274D01*
X0121409Y0024187D01*
X0121308Y0024104D01*
X0121204Y0024023D01*
X0121098Y0023946D01*
X0120989Y0023872D01*
X0120878Y0023801D01*
X0120766Y0023733D01*
X0120651Y0023669D01*
X0120534Y0023609D01*
X0120415Y0023552D01*
X0120295Y0023499D01*
X0120174Y0023449D01*
X0120050Y0023403D01*
X0119926Y0023361D01*
X0119800Y0023323D01*
X0119673Y0023288D01*
X0119545Y0023257D01*
X0119417Y0023231D01*
X0119287Y0023208D01*
X0119157Y0023189D01*
X0119027Y0023174D01*
X0118896Y0023163D01*
X0118764Y0023156D01*
X0118633Y0023153D01*
X0118501Y0023154D01*
X0118370Y0023159D01*
X0118239Y0023168D01*
X0118108Y0023181D01*
X0117978Y0023198D01*
X0117848Y0023219D01*
X0117719Y0023244D01*
X0117591Y0023272D01*
X0117463Y0023305D01*
X0117337Y0023341D01*
X0117212Y0023382D01*
X0117088Y0023426D01*
X0116965Y0023473D01*
X0116844Y0023525D01*
X0116725Y0023580D01*
X0116607Y0023639D01*
X0116492Y0023701D01*
X0116378Y0023767D01*
X0116266Y0023836D01*
X0116156Y0023908D01*
X0116049Y0023984D01*
X0115944Y0024063D01*
X0115841Y0024145D01*
X0115741Y0024230D01*
X0115644Y0024319D01*
X0115549Y0024410D01*
X0115457Y0024504D01*
X0115368Y0024601D01*
X0115282Y0024700D01*
X0115199Y0024802D01*
X0115119Y0024907D01*
X0115043Y0025013D01*
X0114970Y0025122D01*
X0114900Y0025234D01*
X0114833Y0025347D01*
X0114770Y0025462D01*
X0114710Y0025580D01*
X0114654Y0025698D01*
X0114602Y0025819D01*
X0114553Y0025941D01*
X0114508Y0026065D01*
X0114467Y0026189D01*
X0114430Y0026316D01*
X0114396Y0026443D01*
X0114366Y0026571D01*
X0114341Y0026700D01*
X0114319Y0026829D01*
X0114301Y0026959D01*
X0114287Y0027090D01*
X0114277Y0027221D01*
X0114271Y0027353D01*
X0114269Y0027484D01*
X0194269Y0027484D02*
X0194271Y0027615D01*
X0194277Y0027747D01*
X0194287Y0027878D01*
X0194301Y0028009D01*
X0194319Y0028139D01*
X0194341Y0028268D01*
X0194366Y0028397D01*
X0194396Y0028525D01*
X0194430Y0028652D01*
X0194467Y0028779D01*
X0194508Y0028903D01*
X0194553Y0029027D01*
X0194602Y0029149D01*
X0194654Y0029270D01*
X0194710Y0029388D01*
X0194770Y0029506D01*
X0194833Y0029621D01*
X0194900Y0029734D01*
X0194970Y0029846D01*
X0195043Y0029955D01*
X0195119Y0030061D01*
X0195199Y0030166D01*
X0195282Y0030268D01*
X0195368Y0030367D01*
X0195457Y0030464D01*
X0195549Y0030558D01*
X0195644Y0030649D01*
X0195741Y0030738D01*
X0195841Y0030823D01*
X0195944Y0030905D01*
X0196049Y0030984D01*
X0196156Y0031060D01*
X0196266Y0031132D01*
X0196378Y0031201D01*
X0196492Y0031267D01*
X0196607Y0031329D01*
X0196725Y0031388D01*
X0196844Y0031443D01*
X0196965Y0031495D01*
X0197088Y0031542D01*
X0197212Y0031586D01*
X0197337Y0031627D01*
X0197463Y0031663D01*
X0197591Y0031696D01*
X0197719Y0031724D01*
X0197848Y0031749D01*
X0197978Y0031770D01*
X0198108Y0031787D01*
X0198239Y0031800D01*
X0198370Y0031809D01*
X0198501Y0031814D01*
X0198633Y0031815D01*
X0198764Y0031812D01*
X0198896Y0031805D01*
X0199027Y0031794D01*
X0199157Y0031779D01*
X0199287Y0031760D01*
X0199417Y0031737D01*
X0199545Y0031711D01*
X0199673Y0031680D01*
X0199800Y0031645D01*
X0199926Y0031607D01*
X0200050Y0031565D01*
X0200174Y0031519D01*
X0200295Y0031469D01*
X0200415Y0031416D01*
X0200534Y0031359D01*
X0200651Y0031299D01*
X0200765Y0031235D01*
X0200878Y0031167D01*
X0200989Y0031096D01*
X0201098Y0031022D01*
X0201204Y0030945D01*
X0201308Y0030864D01*
X0201409Y0030781D01*
X0201508Y0030694D01*
X0201604Y0030604D01*
X0201697Y0030511D01*
X0201788Y0030416D01*
X0201875Y0030318D01*
X0201960Y0030217D01*
X0202041Y0030114D01*
X0202119Y0030008D01*
X0202194Y0029900D01*
X0202266Y0029790D01*
X0202334Y0029678D01*
X0202399Y0029564D01*
X0202460Y0029447D01*
X0202518Y0029329D01*
X0202572Y0029209D01*
X0202623Y0029088D01*
X0202670Y0028965D01*
X0202713Y0028841D01*
X0202752Y0028716D01*
X0202788Y0028589D01*
X0202819Y0028461D01*
X0202847Y0028333D01*
X0202871Y0028204D01*
X0202891Y0028074D01*
X0202907Y0027943D01*
X0202919Y0027812D01*
X0202927Y0027681D01*
X0202931Y0027550D01*
X0202931Y0027418D01*
X0202927Y0027287D01*
X0202919Y0027156D01*
X0202907Y0027025D01*
X0202891Y0026894D01*
X0202871Y0026764D01*
X0202847Y0026635D01*
X0202819Y0026507D01*
X0202788Y0026379D01*
X0202752Y0026252D01*
X0202713Y0026127D01*
X0202670Y0026003D01*
X0202623Y0025880D01*
X0202572Y0025759D01*
X0202518Y0025639D01*
X0202460Y0025521D01*
X0202399Y0025404D01*
X0202334Y0025290D01*
X0202266Y0025178D01*
X0202194Y0025068D01*
X0202119Y0024960D01*
X0202041Y0024854D01*
X0201960Y0024751D01*
X0201875Y0024650D01*
X0201788Y0024552D01*
X0201697Y0024457D01*
X0201604Y0024364D01*
X0201508Y0024274D01*
X0201409Y0024187D01*
X0201308Y0024104D01*
X0201204Y0024023D01*
X0201098Y0023946D01*
X0200989Y0023872D01*
X0200878Y0023801D01*
X0200766Y0023733D01*
X0200651Y0023669D01*
X0200534Y0023609D01*
X0200415Y0023552D01*
X0200295Y0023499D01*
X0200174Y0023449D01*
X0200050Y0023403D01*
X0199926Y0023361D01*
X0199800Y0023323D01*
X0199673Y0023288D01*
X0199545Y0023257D01*
X0199417Y0023231D01*
X0199287Y0023208D01*
X0199157Y0023189D01*
X0199027Y0023174D01*
X0198896Y0023163D01*
X0198764Y0023156D01*
X0198633Y0023153D01*
X0198501Y0023154D01*
X0198370Y0023159D01*
X0198239Y0023168D01*
X0198108Y0023181D01*
X0197978Y0023198D01*
X0197848Y0023219D01*
X0197719Y0023244D01*
X0197591Y0023272D01*
X0197463Y0023305D01*
X0197337Y0023341D01*
X0197212Y0023382D01*
X0197088Y0023426D01*
X0196965Y0023473D01*
X0196844Y0023525D01*
X0196725Y0023580D01*
X0196607Y0023639D01*
X0196492Y0023701D01*
X0196378Y0023767D01*
X0196266Y0023836D01*
X0196156Y0023908D01*
X0196049Y0023984D01*
X0195944Y0024063D01*
X0195841Y0024145D01*
X0195741Y0024230D01*
X0195644Y0024319D01*
X0195549Y0024410D01*
X0195457Y0024504D01*
X0195368Y0024601D01*
X0195282Y0024700D01*
X0195199Y0024802D01*
X0195119Y0024907D01*
X0195043Y0025013D01*
X0194970Y0025122D01*
X0194900Y0025234D01*
X0194833Y0025347D01*
X0194770Y0025462D01*
X0194710Y0025580D01*
X0194654Y0025698D01*
X0194602Y0025819D01*
X0194553Y0025941D01*
X0194508Y0026065D01*
X0194467Y0026189D01*
X0194430Y0026316D01*
X0194396Y0026443D01*
X0194366Y0026571D01*
X0194341Y0026700D01*
X0194319Y0026829D01*
X0194301Y0026959D01*
X0194287Y0027090D01*
X0194277Y0027221D01*
X0194271Y0027353D01*
X0194269Y0027484D01*
D11*
X0190343Y0034924D02*
X0190343Y0037827D01*
X0188892Y0037827D01*
X0188408Y0037343D01*
X0188408Y0036375D01*
X0188892Y0035892D01*
X0190343Y0035892D01*
X0189376Y0035892D02*
X0188408Y0034924D01*
X0186429Y0034924D02*
X0186429Y0037827D01*
X0187396Y0037827D02*
X0185461Y0037827D01*
X0184450Y0036375D02*
X0183966Y0036859D01*
X0182999Y0036859D01*
X0182515Y0036375D01*
X0182515Y0035892D01*
X0184450Y0035892D01*
X0184450Y0036375D02*
X0184450Y0035408D01*
X0183966Y0034924D01*
X0182999Y0034924D01*
X0181503Y0035408D02*
X0181020Y0035892D01*
X0179568Y0035892D01*
X0179568Y0036375D02*
X0179568Y0034924D01*
X0181020Y0034924D01*
X0181503Y0035408D01*
X0180052Y0036859D02*
X0179568Y0036375D01*
X0180052Y0036859D02*
X0181020Y0036859D01*
X0178557Y0036859D02*
X0178073Y0036859D01*
X0177589Y0036375D01*
X0177106Y0036859D01*
X0176622Y0036375D01*
X0176622Y0034924D01*
X0177589Y0034924D02*
X0177589Y0036375D01*
X0178557Y0036859D02*
X0178557Y0034924D01*
X0172664Y0034924D02*
X0172664Y0037827D01*
X0171213Y0037827D01*
X0170729Y0037343D01*
X0170729Y0036375D01*
X0171213Y0035892D01*
X0172664Y0035892D01*
X0171696Y0035892D02*
X0170729Y0034924D01*
X0169717Y0035408D02*
X0169234Y0034924D01*
X0168266Y0034924D01*
X0167782Y0035408D01*
X0167782Y0036375D01*
X0168266Y0036859D01*
X0169234Y0036859D01*
X0169717Y0036375D01*
X0169717Y0035408D01*
X0166771Y0034924D02*
X0165320Y0034924D01*
X0164836Y0035408D01*
X0164836Y0036375D01*
X0165320Y0036859D01*
X0166771Y0036859D01*
X0166771Y0037827D02*
X0166771Y0034924D01*
X0163824Y0035408D02*
X0163824Y0036375D01*
X0163341Y0036859D01*
X0162373Y0036859D01*
X0161889Y0036375D01*
X0161889Y0035408D01*
X0162373Y0034924D01*
X0163341Y0034924D01*
X0163824Y0035408D01*
X0160394Y0035408D02*
X0159910Y0034924D01*
X0160394Y0035408D02*
X0160394Y0037343D01*
X0160878Y0036859D02*
X0159910Y0036859D01*
X0158913Y0036859D02*
X0158430Y0036859D01*
X0158430Y0034924D01*
X0158913Y0034924D02*
X0157946Y0034924D01*
X0156949Y0035408D02*
X0156465Y0034924D01*
X0155014Y0034924D01*
X0154003Y0034924D02*
X0152551Y0034924D01*
X0152068Y0035408D01*
X0152551Y0035892D01*
X0153519Y0035892D01*
X0154003Y0036375D01*
X0153519Y0036859D01*
X0152068Y0036859D01*
X0155014Y0036859D02*
X0156465Y0036859D01*
X0156949Y0036375D01*
X0156949Y0035408D01*
X0158430Y0037827D02*
X0158430Y0038310D01*
X0158220Y0039933D02*
X0156285Y0039933D01*
X0158220Y0039933D02*
X0156285Y0041868D01*
X0156285Y0042352D01*
X0156769Y0042836D01*
X0157736Y0042836D01*
X0158220Y0042352D01*
X0160199Y0042836D02*
X0160199Y0039933D01*
X0161166Y0039933D02*
X0159232Y0039933D01*
X0162178Y0039933D02*
X0163146Y0040901D01*
X0162662Y0040901D02*
X0164113Y0040901D01*
X0164113Y0039933D02*
X0164113Y0042836D01*
X0162662Y0042836D01*
X0162178Y0042352D01*
X0162178Y0041384D01*
X0162662Y0040901D01*
X0161166Y0041868D02*
X0160199Y0042836D01*
X0150947Y0044076D02*
X0150947Y0045527D01*
X0150464Y0046011D01*
X0149496Y0046011D01*
X0149012Y0045527D01*
X0149012Y0044076D01*
X0148045Y0044076D02*
X0150947Y0044076D01*
X0149012Y0045044D02*
X0148045Y0046011D01*
X0148529Y0047023D02*
X0148045Y0047507D01*
X0148045Y0048474D01*
X0148529Y0048958D01*
X0149012Y0048958D01*
X0149496Y0048474D01*
X0149496Y0047023D01*
X0148529Y0047023D01*
X0149496Y0047023D02*
X0150464Y0047990D01*
X0150947Y0048958D01*
X0148300Y0037737D02*
X0146849Y0037737D01*
X0146365Y0037253D01*
X0146365Y0036285D01*
X0146849Y0035802D01*
X0148300Y0035802D01*
X0147333Y0035802D02*
X0146365Y0034834D01*
X0145353Y0035318D02*
X0145353Y0036285D01*
X0144870Y0036769D01*
X0143902Y0036769D01*
X0143419Y0036285D01*
X0143419Y0035802D01*
X0145353Y0035802D01*
X0145353Y0035318D02*
X0144870Y0034834D01*
X0143902Y0034834D01*
X0142407Y0036769D02*
X0141439Y0034834D01*
X0140472Y0036769D01*
X0136514Y0037253D02*
X0136514Y0035318D01*
X0136030Y0034834D01*
X0135063Y0034834D01*
X0134579Y0035318D01*
X0134579Y0037253D02*
X0135063Y0037737D01*
X0136030Y0037737D01*
X0136514Y0037253D01*
X0148300Y0037737D02*
X0148300Y0034834D01*
X0110853Y0048057D02*
X0110853Y0049508D01*
X0110370Y0049992D01*
X0109402Y0049992D01*
X0108918Y0049508D01*
X0108918Y0048057D01*
X0107951Y0048057D02*
X0110853Y0048057D01*
X0108918Y0049025D02*
X0107951Y0049992D01*
X0108435Y0051004D02*
X0108918Y0051004D01*
X0109402Y0051487D01*
X0109402Y0052455D01*
X0108918Y0052939D01*
X0108435Y0052939D01*
X0107951Y0052455D01*
X0107951Y0051487D01*
X0108435Y0051004D01*
X0109402Y0051487D02*
X0109886Y0051004D01*
X0110370Y0051004D01*
X0110853Y0051487D01*
X0110853Y0052455D01*
X0110370Y0052939D01*
X0109886Y0052939D01*
X0109402Y0052455D01*
X0108736Y0055400D02*
X0108736Y0056851D01*
X0109220Y0057335D01*
X0110188Y0057335D01*
X0110671Y0056851D01*
X0110671Y0055400D01*
X0107769Y0055400D01*
X0108736Y0056368D02*
X0107769Y0057335D01*
X0108253Y0058347D02*
X0107769Y0058830D01*
X0107769Y0059798D01*
X0108253Y0060282D01*
X0110188Y0060282D01*
X0110671Y0059798D01*
X0110671Y0058830D01*
X0110188Y0058347D01*
X0109704Y0058347D01*
X0109220Y0058830D01*
X0109220Y0060282D01*
X0108976Y0063109D02*
X0108976Y0065528D01*
X0108492Y0066012D01*
X0110456Y0066012D02*
X0111424Y0066012D01*
X0110940Y0066012D02*
X0110940Y0063109D01*
X0111424Y0063109D02*
X0110456Y0063109D01*
X0109460Y0064560D02*
X0108492Y0064560D01*
X0104549Y0065044D02*
X0104549Y0063593D01*
X0104065Y0063109D01*
X0103581Y0063593D01*
X0103098Y0063109D01*
X0102614Y0063593D01*
X0102614Y0065044D01*
X0101602Y0064560D02*
X0101118Y0065044D01*
X0100151Y0065044D01*
X0099667Y0064560D01*
X0099667Y0064077D01*
X0101602Y0064077D01*
X0101602Y0064560D02*
X0101602Y0063593D01*
X0101118Y0063109D01*
X0100151Y0063109D01*
X0095709Y0063593D02*
X0095709Y0064560D01*
X0095225Y0065044D01*
X0093774Y0065044D01*
X0093774Y0066012D02*
X0093774Y0063109D01*
X0095225Y0063109D01*
X0095709Y0063593D01*
X0092763Y0063593D02*
X0092279Y0063109D01*
X0091311Y0063109D01*
X0090828Y0063593D01*
X0090828Y0064560D01*
X0091311Y0065044D01*
X0092279Y0065044D01*
X0092763Y0064560D01*
X0092763Y0063593D01*
X0089816Y0063109D02*
X0089816Y0065044D01*
X0088365Y0065044D01*
X0087881Y0064560D01*
X0087881Y0063109D01*
X0084913Y0063593D02*
X0084429Y0063109D01*
X0084913Y0063593D02*
X0084913Y0065528D01*
X0085396Y0065044D02*
X0084429Y0065044D01*
X0086386Y0065528D02*
X0086870Y0065044D01*
X0086386Y0065528D02*
X0086386Y0066495D01*
X0080486Y0066012D02*
X0080486Y0063109D01*
X0079034Y0063109D01*
X0078551Y0063593D01*
X0078551Y0064560D01*
X0079034Y0065044D01*
X0080486Y0065044D01*
X0077539Y0065044D02*
X0077539Y0063593D01*
X0077055Y0063109D01*
X0075604Y0063109D01*
X0075604Y0065044D01*
X0074592Y0065044D02*
X0074109Y0065044D01*
X0074109Y0063109D01*
X0074592Y0063109D02*
X0073625Y0063109D01*
X0072628Y0063109D02*
X0071661Y0063109D01*
X0072144Y0063109D02*
X0072144Y0066012D01*
X0072628Y0066012D01*
X0074109Y0066012D02*
X0074109Y0066495D01*
X0070664Y0064560D02*
X0070180Y0065044D01*
X0068729Y0065044D01*
X0068729Y0066012D02*
X0068729Y0063109D01*
X0070180Y0063109D01*
X0070664Y0063593D01*
X0070664Y0064560D01*
X0064771Y0065044D02*
X0064287Y0064560D01*
X0063320Y0064560D01*
X0062836Y0064077D01*
X0062836Y0063593D01*
X0063320Y0063109D01*
X0064287Y0063109D01*
X0064771Y0063593D01*
X0061824Y0063109D02*
X0061824Y0066012D01*
X0062836Y0065528D02*
X0063320Y0066012D01*
X0064287Y0066012D01*
X0064771Y0065528D01*
X0064771Y0065044D01*
X0061824Y0064077D02*
X0060373Y0065044D01*
X0059369Y0065044D02*
X0059369Y0063593D01*
X0058885Y0063109D01*
X0057434Y0063109D01*
X0057434Y0062626D02*
X0057918Y0062142D01*
X0058401Y0062142D01*
X0057434Y0062626D02*
X0057434Y0065044D01*
X0056422Y0065044D02*
X0054971Y0065044D01*
X0054487Y0064560D01*
X0054487Y0063109D01*
X0053476Y0063593D02*
X0053476Y0064560D01*
X0052992Y0065044D01*
X0052025Y0065044D01*
X0051541Y0064560D01*
X0051541Y0064077D01*
X0053476Y0064077D01*
X0053476Y0063593D02*
X0052992Y0063109D01*
X0052025Y0063109D01*
X0050046Y0063593D02*
X0049562Y0063109D01*
X0050046Y0063593D02*
X0050046Y0065528D01*
X0050529Y0065044D02*
X0049562Y0065044D01*
X0048081Y0063593D02*
X0048081Y0063109D01*
X0047597Y0063109D01*
X0047597Y0063593D01*
X0048081Y0063593D01*
X0047597Y0063109D02*
X0048565Y0062142D01*
X0043654Y0063593D02*
X0043170Y0063109D01*
X0042687Y0063593D01*
X0042203Y0063109D01*
X0041719Y0063593D01*
X0041719Y0065044D01*
X0040708Y0064560D02*
X0040224Y0065044D01*
X0039256Y0065044D01*
X0038773Y0064560D01*
X0038773Y0063109D01*
X0037761Y0063593D02*
X0037277Y0063109D01*
X0036310Y0063109D01*
X0035826Y0063593D01*
X0035826Y0064560D01*
X0036310Y0065044D01*
X0037277Y0065044D01*
X0037761Y0064560D01*
X0037761Y0063593D01*
X0040708Y0063109D02*
X0040708Y0066012D01*
X0043654Y0065044D02*
X0043654Y0063593D01*
X0031868Y0063593D02*
X0031384Y0063109D01*
X0030900Y0063593D01*
X0030417Y0063109D01*
X0029933Y0063593D01*
X0029933Y0065044D01*
X0028921Y0065044D02*
X0028438Y0065044D01*
X0028438Y0063109D01*
X0028921Y0063109D02*
X0027954Y0063109D01*
X0026957Y0063109D02*
X0025990Y0063109D01*
X0026473Y0063109D02*
X0026473Y0066012D01*
X0026957Y0066012D01*
X0028438Y0066012D02*
X0028438Y0066495D01*
X0024993Y0066012D02*
X0024509Y0066012D01*
X0024509Y0063109D01*
X0024993Y0063109D02*
X0024025Y0063109D01*
X0022061Y0063109D02*
X0022061Y0063593D01*
X0022061Y0064077D02*
X0021093Y0065044D01*
X0021093Y0065528D01*
X0021577Y0066012D01*
X0022545Y0066012D01*
X0023028Y0065528D01*
X0017856Y0062135D02*
X0016405Y0062135D01*
X0015921Y0061651D01*
X0015921Y0059716D01*
X0016405Y0059233D01*
X0017856Y0059233D01*
X0017856Y0062135D01*
X0014909Y0060684D02*
X0012974Y0060684D01*
X0013458Y0062135D02*
X0014909Y0060684D01*
X0013458Y0059233D02*
X0013458Y0062135D01*
X0031868Y0063593D02*
X0031868Y0065044D01*
X0056422Y0065044D02*
X0056422Y0063109D01*
X0060373Y0063109D02*
X0061824Y0064077D01*
X0060506Y0051985D02*
X0059055Y0051985D01*
X0058571Y0051501D01*
X0058571Y0049566D01*
X0059055Y0049083D01*
X0060506Y0049083D01*
X0060506Y0051985D01*
X0057559Y0051501D02*
X0057076Y0051985D01*
X0056108Y0051985D01*
X0055624Y0051501D01*
X0055624Y0051018D01*
X0056108Y0050534D01*
X0055624Y0050050D01*
X0055624Y0049566D01*
X0056108Y0049083D01*
X0057076Y0049083D01*
X0057559Y0049566D01*
X0056592Y0050534D02*
X0056108Y0050534D01*
X0091962Y0038916D02*
X0091962Y0038432D01*
X0093897Y0036497D01*
X0093897Y0036013D01*
X0094908Y0036013D02*
X0095876Y0036981D01*
X0095392Y0036981D02*
X0096843Y0036981D01*
X0095392Y0036981D02*
X0094908Y0037464D01*
X0094908Y0038432D01*
X0095392Y0038916D01*
X0096843Y0038916D01*
X0096843Y0036013D01*
X0093897Y0038916D02*
X0091962Y0038916D01*
X0074760Y0032877D02*
X0074760Y0030458D01*
X0074276Y0029974D01*
X0073309Y0029974D01*
X0072825Y0030458D01*
X0072825Y0032877D01*
X0071813Y0032393D02*
X0071330Y0032877D01*
X0070362Y0032877D01*
X0069879Y0032393D01*
X0069879Y0031909D01*
X0071813Y0029974D01*
X0069879Y0029974D01*
X0076609Y0028913D02*
X0076609Y0028429D01*
X0077092Y0027945D01*
X0076609Y0027462D01*
X0076609Y0026978D01*
X0077092Y0026494D01*
X0078060Y0026494D01*
X0078543Y0026978D01*
X0079555Y0026978D02*
X0080039Y0026494D01*
X0081006Y0026494D01*
X0081490Y0026978D01*
X0081490Y0028913D01*
X0081006Y0029397D01*
X0080039Y0029397D01*
X0079555Y0028913D01*
X0078543Y0028913D02*
X0078060Y0029397D01*
X0077092Y0029397D01*
X0076609Y0028913D01*
X0077092Y0027945D02*
X0077576Y0027945D01*
X0057470Y0023027D02*
X0056019Y0023027D01*
X0055535Y0022543D01*
X0055535Y0021575D01*
X0056019Y0021092D01*
X0057470Y0021092D01*
X0056503Y0021092D02*
X0055535Y0020124D01*
X0054523Y0020124D02*
X0052589Y0020124D01*
X0053556Y0020124D02*
X0053556Y0023027D01*
X0054523Y0022059D01*
X0057470Y0023027D02*
X0057470Y0020124D01*
X0051577Y0020608D02*
X0051093Y0020124D01*
X0050126Y0020124D01*
X0049642Y0020608D01*
X0049642Y0021092D01*
X0050126Y0021575D01*
X0050609Y0021575D01*
X0050126Y0021575D02*
X0049642Y0022059D01*
X0049642Y0022543D01*
X0050126Y0023027D01*
X0051093Y0023027D01*
X0051577Y0022543D01*
X0038322Y0032852D02*
X0038322Y0035755D01*
X0036870Y0035755D01*
X0036387Y0035271D01*
X0036387Y0034303D01*
X0036870Y0033820D01*
X0038322Y0033820D01*
X0037354Y0033820D02*
X0036387Y0032852D01*
X0035375Y0032852D02*
X0033440Y0032852D01*
X0034408Y0032852D02*
X0034408Y0035755D01*
X0035375Y0034787D01*
X0032429Y0034787D02*
X0031461Y0035755D01*
X0031461Y0032852D01*
X0030494Y0032852D02*
X0032429Y0032852D01*
X0121532Y0061773D02*
X0123467Y0061773D01*
X0122499Y0061773D02*
X0122499Y0064675D01*
X0123467Y0063708D01*
X0124478Y0064192D02*
X0124962Y0064675D01*
X0126413Y0064675D01*
X0126413Y0061773D01*
X0124962Y0061773D01*
X0124478Y0062257D01*
X0124478Y0064192D01*
X0134844Y0064098D02*
X0135328Y0064582D01*
X0136296Y0064582D01*
X0136779Y0064098D01*
X0137791Y0064098D02*
X0138275Y0064582D01*
X0139726Y0064582D01*
X0139726Y0061680D01*
X0138275Y0061680D01*
X0137791Y0062163D01*
X0137791Y0064098D01*
X0136779Y0061680D02*
X0134844Y0063614D01*
X0134844Y0064098D01*
X0134844Y0061680D02*
X0136779Y0061680D01*
X0148138Y0063406D02*
X0150072Y0063406D01*
X0149105Y0063406D02*
X0149105Y0066309D01*
X0150072Y0065341D01*
X0151084Y0065825D02*
X0151084Y0063890D01*
X0151568Y0063406D01*
X0152535Y0063406D01*
X0153019Y0063890D01*
X0153019Y0065825D01*
X0152535Y0066309D01*
X0151568Y0066309D01*
X0151084Y0065825D01*
X0152052Y0064374D02*
X0151084Y0063406D01*
X0162514Y0065007D02*
X0164449Y0065007D01*
X0162998Y0066459D01*
X0162998Y0063556D01*
X0165461Y0063556D02*
X0167395Y0063556D01*
X0166428Y0063556D02*
X0166428Y0066459D01*
X0167395Y0065491D01*
X0168407Y0065007D02*
X0168891Y0064524D01*
X0170342Y0064524D01*
X0169375Y0064524D02*
X0168407Y0063556D01*
X0170342Y0063556D02*
X0170342Y0066459D01*
X0168891Y0066459D01*
X0168407Y0065975D01*
X0168407Y0065007D01*
X0187454Y0064635D02*
X0189389Y0064635D01*
X0189389Y0063184D01*
X0188422Y0063668D01*
X0187938Y0063668D01*
X0187454Y0063184D01*
X0187454Y0062216D01*
X0187938Y0061733D01*
X0188906Y0061733D01*
X0189389Y0062216D01*
X0190401Y0062216D02*
X0190885Y0061733D01*
X0192336Y0061733D01*
X0192336Y0064635D01*
X0190885Y0064635D01*
X0190401Y0064151D01*
X0190401Y0062216D01*
D12*
X0181257Y0060614D02*
X0200943Y0060614D01*
X0179683Y0040535D02*
X0181651Y0037780D01*
X0181257Y0039354D02*
X0200943Y0039354D01*
X0135521Y0046563D02*
X0135521Y0056406D01*
X0135324Y0053453D02*
X0125876Y0053453D01*
X0125679Y0056406D02*
X0125679Y0046563D01*
X0122521Y0046563D02*
X0122521Y0056406D01*
X0112679Y0056406D02*
X0112679Y0046563D01*
X0112876Y0049516D02*
X0122324Y0049516D01*
X0085443Y0039354D02*
X0065757Y0039354D01*
X0066151Y0037780D02*
X0064183Y0040535D01*
X0039943Y0039354D02*
X0020257Y0039354D01*
X0020651Y0037780D02*
X0018683Y0040535D01*
X0020257Y0060614D02*
X0039943Y0060614D01*
X0065757Y0060614D02*
X0085443Y0060614D01*
D13*
X0065535Y0036871D02*
X0061205Y0036871D01*
X0061205Y0028997D02*
X0065535Y0028997D01*
M02*
