G75*
%MOIN*%
%OFA0B0*%
%FSLAX25Y25*%
%IPPOS*%
%LPD*%
%AMOC8*
5,1,8,0,0,1.08239X$1,22.5*
%
%ADD10R,0.03937X0.07874*%
%ADD11R,0.10236X0.04331*%
%ADD12R,0.05512X0.03937*%
%ADD13R,0.03937X0.04331*%
%ADD14R,0.04331X0.03937*%
%ADD15R,0.02756X0.01575*%
D10*
X0117600Y0044004D03*
X0130600Y0044004D03*
X0130600Y0058965D03*
X0117600Y0058965D03*
D11*
X0084655Y0055890D03*
X0084655Y0049984D03*
X0084655Y0044079D03*
X0066545Y0044079D03*
X0066545Y0049984D03*
X0066545Y0055890D03*
X0039155Y0055890D03*
X0039155Y0049984D03*
X0039155Y0044079D03*
X0021045Y0044079D03*
X0021045Y0049984D03*
X0021045Y0055890D03*
X0182045Y0055890D03*
X0182045Y0049984D03*
X0182045Y0044079D03*
X0200155Y0044079D03*
X0200155Y0049984D03*
X0200155Y0055890D03*
D12*
X0155586Y0052283D03*
X0146924Y0056023D03*
X0155586Y0059763D03*
D13*
X0060074Y0024154D03*
X0066766Y0024154D03*
X0026109Y0035140D03*
X0019417Y0035140D03*
X0097254Y0041831D03*
X0103946Y0041831D03*
X0103946Y0050144D03*
X0097254Y0050144D03*
X0097254Y0058968D03*
X0103946Y0058968D03*
X0163172Y0059799D03*
X0169864Y0059799D03*
X0166560Y0044069D03*
X0173252Y0044069D03*
D14*
X0143600Y0043138D03*
X0143600Y0049831D03*
X0082276Y0023954D03*
X0075584Y0023954D03*
D15*
X0066716Y0030375D03*
X0066716Y0032934D03*
X0060024Y0030375D03*
X0060024Y0035493D03*
X0066716Y0035493D03*
M02*
