G75*
%MOIN*%
%OFA0B0*%
%FSLAX25Y25*%
%IPPOS*%
%LPD*%
%AMOC8*
5,1,8,0,0,1.08239X$1,22.5*
%
%ADD10C,0.05937*%
%ADD11C,0.03962*%
%ADD12C,0.01000*%
D10*
X0018600Y0025484D03*
X0030600Y0025484D03*
X0143836Y0027484D03*
X0153679Y0027484D03*
X0163521Y0027484D03*
X0173364Y0027484D03*
D11*
X0150600Y0041484D03*
X0136600Y0041484D03*
X0157600Y0046484D03*
X0163564Y0051377D03*
X0171110Y0053064D03*
X0110336Y0044977D03*
X0098600Y0035484D03*
X0089600Y0029484D03*
X0103724Y0028157D03*
X0131689Y0027007D03*
X0075600Y0036484D03*
X0055450Y0032094D03*
X0050843Y0037330D03*
X0051864Y0043969D03*
X0051600Y0053484D03*
X0056244Y0059240D03*
D12*
X0077600Y0057484D02*
X0077600Y0043433D01*
X0075715Y0041548D01*
X0075715Y0036599D01*
X0075600Y0036484D01*
X0075664Y0041548D02*
X0075715Y0041548D01*
X0087600Y0042484D02*
X0087600Y0031484D01*
X0089600Y0029484D01*
X0098600Y0035484D02*
X0104600Y0035484D01*
X0107600Y0038484D01*
X0122600Y0038484D01*
X0124600Y0036484D01*
X0151600Y0036484D01*
X0153679Y0034406D01*
X0153679Y0027484D01*
X0110336Y0044977D02*
X0090093Y0044977D01*
X0087600Y0042484D01*
X0077600Y0057484D02*
X0079600Y0059484D01*
X0164600Y0059484D01*
X0166564Y0057520D01*
X0163564Y0051377D01*
M02*
